<svg width="24" height="24" viewBox="0 0 24 24" fill="none" xmlns="http://www.w3.org/2000/svg">
<path d="M22.8 3.6001H1.19998C0.519977 3.6001 0 4.12007 0 4.80008V12.8001C0 13.4801 0.519977 14.0001 1.19998 14.0001H22.8C23.48 14.0001 24 13.4801 24 12.8001V4.80008C24 4.12007 23.48 3.6001 22.8 3.6001ZM23.2 12.8001C23.2 13.0401 23.04 13.2001 22.8 13.2001H1.19998C0.959987 13.2001 0.800005 13.0401 0.800005 12.8001V4.80008C0.800005 4.56008 1.00002 4.4001 1.19998 4.4001H22.8C23.04 4.4001 23.1999 4.56008 23.1999 4.80008V12.8001H23.2Z" fill="black"/>
<path d="M10.4 7.20035H13.6C13.84 7.20035 14 7.04036 14 6.80037C14 6.56037 13.84 6.40039 13.6 6.40039H10.4C10.16 6.40039 10 6.56037 10 6.80037C10 7.04036 10.16 7.20035 10.4 7.20035Z" fill="black"/>
<path d="M22.0001 11.6001H2.00008C1.76008 11.6001 1.6001 11.7601 1.6001 12.0001C1.6001 12.2401 1.76008 12.4001 2.00008 12.4001H22.0001C22.2401 12.4001 22.4 12.2401 22.4 12.0001C22.4 11.7601 22.2401 11.6001 22.0001 11.6001Z" fill="black"/>
<path d="M22.0001 10H2.00008C1.76008 10 1.6001 10.16 1.6001 10.4C1.6001 10.64 1.76008 10.8 2.00008 10.8H22.0001C22.2401 10.8 22.4 10.64 22.4 10.4C22.4 10.16 22.2401 10 22.0001 10Z" fill="black"/>
<path d="M12.2 16.8401C11.8001 16.6401 11.6001 16.4001 11.6001 16.2C11.6001 16 11.8401 15.76 12.1601 15.52C12.3601 15.44 12.4001 15.2 12.32 15.0001C12.24 14.8 12 14.7201 11.8001 14.8401C11.16 15.2001 10.8 15.6801 10.8 16.2001C10.8 16.7201 11.16 17.2001 11.8001 17.6001C12.2 17.8001 12.4001 18.0401 12.4001 18.2401C12.4001 18.4401 12.1601 18.6801 11.8001 18.8801C11.6001 18.9601 11.5201 19.2001 11.6401 19.4001C11.7201 19.5201 11.8401 19.6001 12.0001 19.6001C12.0801 19.6001 12.1201 19.6001 12.2001 19.5601C12.8401 19.2001 13.2001 18.7201 13.2001 18.2001C13.2001 17.6801 12.8401 17.1601 12.2 16.8401Z" fill="black"/>
<path d="M7.80014 17.6399C7.40016 17.4399 7.20015 17.1999 7.20015 16.9999C7.20015 16.7998 7.44015 16.5598 7.76016 16.3198C7.96017 16.2398 8.04014 15.9998 7.92014 15.7999C7.84013 15.5999 7.60013 15.5199 7.40016 15.6399C6.76014 15.9999 6.40015 16.4799 6.40015 16.9999C6.40015 17.5199 6.76014 17.9999 7.40016 18.3999C7.80014 18.5999 8.00016 18.8399 8.00016 19.0399C8.00016 19.2399 7.76016 19.4799 7.40016 19.6799C7.20015 19.76 7.12018 20 7.24018 20.1999C7.3202 20.3199 7.4402 20.3999 7.60018 20.3999C7.68019 20.3999 7.72018 20.3999 7.80019 20.3599C8.44021 20 8.80021 19.52 8.80021 18.9999C8.80021 18.4799 8.44017 17.9599 7.80014 17.6399Z" fill="black"/>
<path d="M16.5999 17.6399C16.2 17.4399 16 17.1999 16 16.9999C16 16.7998 16.24 16.5598 16.56 16.3198C16.76 16.2398 16.8 15.9998 16.7199 15.7999C16.6399 15.5999 16.3999 15.5199 16.2 15.6399C15.5599 15.9999 15.2 16.4799 15.2 16.9999C15.2 17.5199 15.5599 17.9999 16.2 18.3999C16.5999 18.5999 16.8 18.8399 16.8 19.0399C16.8 19.2399 16.56 19.4799 16.2 19.6799C16 19.76 15.92 20 16.04 20.1999C16.12 20.3199 16.24 20.3999 16.4 20.3999C16.48 20.3999 16.52 20.3999 16.6 20.3599C17.24 20 17.6 19.52 17.6 18.9999C17.6 18.4799 17.2399 17.9599 16.5999 17.6399Z" fill="black"/>
</svg>
