<svg width="22" height="22" viewBox="0 0 22 22" fill="none" xmlns="http://www.w3.org/2000/svg">
<g clip-path="url(#clip0)">
<path d="M13.42 10.982C13.3026 10.982 13.1853 10.9371 13.0955 10.8482C12.9167 10.6694 12.9167 10.3788 13.0955 10.2001L20.8138 2.48177C21.0365 2.2581 21.0833 2.00602 21.0833 1.83368C21.0833 1.66135 21.0365 1.40927 20.8138 1.1856C20.4645 0.836349 19.8687 0.836349 19.5185 1.1856L11.8002 8.90393C11.6215 9.08268 11.3309 9.08268 11.1521 8.90393C10.9734 8.72518 10.9734 8.4346 11.1521 8.25585L18.8705 0.537516C19.5845 -0.176568 20.7478 -0.176568 21.4619 0.537516C21.8093 0.884932 21.9999 1.3451 21.9999 1.83368C21.9999 2.32227 21.8093 2.78243 21.4628 3.12893L13.7445 10.8473C13.6546 10.9371 13.5373 10.982 13.42 10.982Z" fill="black"/>
<path d="M12.0726 13.5316C11.9525 13.5316 11.8352 13.4839 11.7481 13.3977L8.50771 10.1564C8.39954 10.0482 8.35279 9.89241 8.38213 9.74207L8.69471 8.18099C8.79371 7.68324 9.15763 7.28266 9.64346 7.13507C10.1302 6.98566 10.6545 7.11857 11.0148 7.47882L14.4266 10.8907C14.786 11.25 14.918 11.7752 14.7704 12.262C14.6228 12.7478 14.2222 13.1117 13.7235 13.2107L12.1625 13.5233C12.1322 13.5279 12.1029 13.5316 12.0726 13.5316ZM9.32904 9.68157L12.223 12.5755L13.543 12.3115C13.7859 12.2629 13.8675 12.0741 13.8913 11.9952C13.9151 11.9164 13.9518 11.7138 13.7767 11.5378L10.3649 8.12599C10.1907 7.95091 9.98721 7.98849 9.90746 8.01141C9.82862 8.03524 9.63979 8.11682 9.59121 8.35974L9.32904 9.68157Z" fill="black"/>
<path d="M9.91017 22.0412C9.79009 22.0412 9.67367 21.9944 9.58567 21.9073L4.04442 16.3661C3.89409 16.2157 3.86659 15.982 3.97842 15.8014L4.67876 14.6666H2.53559C2.41367 14.6666 2.29726 14.618 2.21109 14.5327L0.159589 12.4812C0.0440888 12.3667 -0.000827903 12.198 0.0404221 12.0412C0.0816721 11.8836 0.203589 11.7598 0.360339 11.7167L8.70842 9.39115C8.86792 9.34623 9.03842 9.39115 9.15576 9.50848L12.3971 12.7498C12.5117 12.8644 12.5566 13.0303 12.5172 13.1871L10.3548 21.6965C10.3144 21.856 10.1907 21.9825 10.0321 22.0256C9.99176 22.0357 9.9505 22.0412 9.91017 22.0412ZM4.94917 15.9737L9.66451 20.6891L11.5638 13.2127L8.69651 10.3454L1.36317 12.3877L2.72534 13.7499H5.50009C5.66601 13.7499 5.81909 13.8397 5.90067 13.9846C5.98225 14.1294 5.97767 14.3072 5.89059 14.4484L4.94917 15.9737Z" fill="black"/>
</g>
<defs>
<clipPath id="clip0">
<rect width="22" height="22" fill="white"/>
</clipPath>
</defs>
</svg>
