<svg width="17" height="21" viewBox="0 0 17 21" fill="none" xmlns="http://www.w3.org/2000/svg">
<path d="M8.13894 17.654V20.552H8.79929C9.90196 20.552 10.972 20.3359 11.9797 19.9097C12.9526 19.4981 13.8263 18.9091 14.5764 18.1591C15.3265 17.4089 15.9156 16.5353 16.3271 15.5623C16.7533 14.5546 16.9694 13.4846 16.9694 12.3819V12.0832V8.17006C16.9694 7.06739 16.7533 5.99737 16.3271 4.9897C15.9155 4.01674 15.3265 3.14306 14.5764 2.39295C13.8263 1.64284 12.9527 1.05383 11.9797 0.642313C10.972 0.216096 9.90196 0 8.79929 0H8.6476C7.54495 0 6.47491 0.216096 5.46724 0.642313C4.49427 1.05385 3.6206 1.64286 2.87049 2.39295C2.12038 3.14306 1.53137 4.01674 1.11985 4.9897C0.693635 5.99737 0.477539 7.06739 0.477539 8.17006V12.0831C0.477539 14.037 2.06714 15.6266 4.02103 15.6266H4.68138V8.53964H4.02103C3.17996 8.53964 2.40658 8.83438 1.79824 9.32576V8.17009C1.79824 6.34055 2.5107 4.62053 3.80437 3.32686C5.09805 2.03318 6.81807 1.32072 8.6476 1.32072H8.79929C10.6288 1.32072 12.3489 2.03318 13.6425 3.32686C14.9362 4.62053 15.6487 6.34055 15.6487 8.17009V9.32576C15.0403 8.83442 14.2669 8.53964 13.4259 8.53964H12.7655V15.6266H13.4259C14.0009 15.6266 14.5445 15.4888 15.0252 15.2446C14.6903 15.972 14.2257 16.642 13.6425 17.2251C13.0022 17.8654 12.2574 18.3633 11.4467 18.703L11.4686 17.6541L8.13894 17.654ZM3.36066 9.9605V14.2058C2.4564 13.9239 1.79821 13.079 1.79821 12.0832C1.79824 11.0873 2.4564 10.2423 3.36066 9.9605ZM14.0862 14.2058V9.9605C14.9905 10.2424 15.6487 11.0873 15.6487 12.0832C15.6487 13.079 14.9905 13.9239 14.0862 14.2058ZM10.1173 19.1054C9.90068 19.1473 9.68138 19.179 9.45964 19.2001V18.9748H10.12L10.1173 19.1054Z" fill="black"/>
</svg>
