<svg width="25" height="26" viewBox="0 0 25 26" fill="none" xmlns="http://www.w3.org/2000/svg">
<g clip-path="url(#clip0)">
<path d="M18.6356 16.3645L21.675 4.46388H25V2.59326H20.2221L19.5056 5.39863L0.163208 5.3848L2.21959 16.3645H18.6356V16.3645ZM19.028 7.26892L17.1828 14.4939H3.77237L2.41697 7.25704L19.028 7.26892Z" fill="#2F2F2F"/>
<path d="M16.075 23.1815C17.7245 23.1815 19.0664 21.8396 19.0664 20.1901C19.0664 18.5406 17.7245 17.1987 16.075 17.1987H4.8045C3.15502 17.1987 1.81305 18.5406 1.81305 20.1901C1.81305 21.8396 3.155 23.1815 4.8045 23.1815C6.45399 23.1815 7.79591 21.8396 7.79591 20.1901C7.79591 19.794 7.71831 19.4157 7.57785 19.0693H13.3016C13.1611 19.4157 13.0835 19.794 13.0835 20.1901C13.0836 21.8396 14.4255 23.1815 16.075 23.1815ZM5.9253 20.1901C5.9253 20.8082 5.42251 21.3109 4.8045 21.3109C4.18648 21.3109 3.68367 20.8082 3.68367 20.1901C3.68367 19.5721 4.18645 19.0693 4.8045 19.0693C5.42251 19.0693 5.9253 19.5721 5.9253 20.1901ZM17.1958 20.1901C17.1958 20.8082 16.693 21.3109 16.075 21.3109C15.457 21.3109 14.9542 20.8082 14.9542 20.1901C14.9542 19.5721 15.457 19.0693 16.075 19.0693C16.693 19.0693 17.1958 19.5721 17.1958 20.1901Z" fill="#2F2F2F"/>
</g>
<defs>
<clipPath id="clip0">
<rect width="24.8368" height="24.8368" fill="white" transform="translate(0.163086 0.46875)"/>
</clipPath>
</defs>
</svg>
