<svg width="20" height="20" viewBox="0 0 20 20" fill="none" xmlns="http://www.w3.org/2000/svg">
<g clip-path="url(#clip0)">
<path d="M9.99333 19.9999C9.9275 19.9999 9.86083 19.9841 9.80083 19.9524L0.224167 14.9524C0.0866667 14.8807 0 14.7382 0 14.5832V5.20824C0 5.06408 0.075 4.92991 0.1975 4.85408C0.32 4.77824 0.474167 4.77158 0.6025 4.83574L10.1792 9.62741C10.32 9.69825 10.4092 9.84241 10.4092 9.99991V19.5832C10.4092 19.7291 10.3333 19.8641 10.2083 19.9399C10.1433 19.9799 10.0683 19.9999 9.99333 19.9999ZM0.833333 14.3307L9.57667 18.8957V10.2574L0.833333 5.88241V14.3307Z" fill="black"/>
<path d="M10.0068 20C9.93175 20 9.85675 19.98 9.79092 19.94C9.66675 19.8642 9.59009 19.7292 9.59009 19.5834V10C9.59009 9.84254 9.67925 9.69837 9.82009 9.62754L19.3968 4.83588C19.5243 4.77088 19.6793 4.77754 19.8018 4.85421C19.9251 4.93004 20.0001 5.06421 20.0001 5.20838V14.5834C20.0001 14.7384 19.9134 14.8809 19.7759 14.9525L10.1993 19.9525C10.1393 19.9842 10.0726 20 10.0068 20ZM10.4234 10.2575V18.8959L19.1668 14.3309V5.88254L10.4234 10.2575ZM19.5834 14.5834H19.5918H19.5834Z" fill="black"/>
<path d="M0.416068 5.62507C0.262735 5.62507 0.116068 5.54091 0.0427346 5.39507C-0.0605988 5.18924 0.0235679 4.93924 0.229401 4.83591L9.8194 0.0442383C9.9369 -0.0140951 10.0752 -0.0140951 10.1919 0.0442383L19.7686 4.83591C19.9744 4.93924 20.0577 5.18924 19.9552 5.39507C19.8519 5.60091 19.6027 5.68341 19.3961 5.58174L10.0061 0.882572L0.602735 5.58091C0.542735 5.61091 0.479401 5.62507 0.416068 5.62507Z" fill="black"/>
<path d="M14.9999 12.5C14.7699 12.5 14.5832 12.3133 14.5832 12.0833V7.75747L5.23655 3.08081C5.03072 2.97831 4.94738 2.72747 5.05072 2.52164C5.15405 2.31581 5.40405 2.23331 5.60988 2.33497L15.1866 7.12664C15.3274 7.19831 15.4166 7.34247 15.4166 7.49997V12.0833C15.4166 12.3133 15.2299 12.5 14.9999 12.5Z" fill="black"/>
</g>
<defs>
<clipPath id="clip0">
<rect width="20" height="20" fill="white"/>
</clipPath>
</defs>
</svg>
