<svg width="22" height="22" viewBox="0 0 22 22" fill="none" xmlns="http://www.w3.org/2000/svg">
<path d="M21.5417 4.58354H18.1592L17.622 3.51014C17.3873 3.04169 16.9162 2.75019 16.3918 2.75019H14.2826L12.7325 2.23409C11.9368 1.96825 11.1082 1.8335 10.2685 1.8335H1.375C0.616902 1.8335 0 2.4504 0 3.2085V6.87519C0 7.63329 0.616902 8.25019 1.375 8.25019H3.58965L2.783 13.4953L1.1 14.7585C1.0936 14.7631 1.09265 14.7714 1.08715 14.7769C1.023 14.8291 0.975305 14.896 0.946902 14.9758C0.941402 14.9904 0.941402 15.0042 0.93775 15.0198C0.9295 15.0546 0.916652 15.0876 0.916652 15.1252V18.7918C0.916652 19.5499 1.53355 20.1668 2.29165 20.1668H9.625C10.3831 20.1668 11 19.5499 11 18.7918V15.1252C11 15.1142 10.9945 15.105 10.9936 15.094C10.9908 15.0601 10.9835 15.028 10.9734 14.9959C10.967 14.973 10.9624 14.951 10.9523 14.9299C10.9377 14.8997 10.9175 14.874 10.8964 14.8474C10.8827 14.83 10.8726 14.8108 10.857 14.7961C10.8259 14.7658 10.7883 14.7438 10.7489 14.7227C10.737 14.7163 10.7278 14.7071 10.7159 14.7026L7.83939 13.4697L8.15014 11.4475C8.18404 11.4539 8.21704 11.4585 8.25004 11.4585C8.45629 11.4585 8.64239 11.3201 8.6937 11.1111L9.15204 9.27779C9.21344 9.03214 9.06404 8.78369 8.81839 8.72229C8.73129 8.69939 8.64604 8.71219 8.56724 8.73789L8.64235 8.25019H10.2685C11.1073 8.25019 11.9359 8.11544 12.7325 7.84959L14.2826 7.3335H16.3918C16.9162 7.3335 17.3873 7.042 17.622 6.57265L18.1583 5.50015H21.5417C21.7947 5.50015 22 5.2948 22 5.0418C22 4.7888 21.7947 4.58354 21.5417 4.58354ZM10.0833 18.7918C10.0833 19.0448 9.878 19.2502 9.625 19.2502H2.29165C2.03865 19.2502 1.8333 19.0448 1.8333 18.7918V15.5835H10.0833V18.7918H10.0833ZM8.30865 14.6668H2.75L3.48335 14.1159C3.5796 14.0444 3.64285 13.9372 3.6612 13.8189L4.51825 8.25019H7.7156L6.8805 13.6796C6.8484 13.8867 6.96025 14.0884 7.15275 14.1709L8.30865 14.6668ZM13.75 6.54519L12.4428 6.98059C11.7407 7.21525 11.0092 7.3335 10.2685 7.3335H8.2491H4.1241H1.375C1.122 7.3335 0.916652 7.12815 0.916652 6.87515V3.20854C0.916652 2.95554 1.122 2.75019 1.375 2.75019V2.74929H10.2685C11.0092 2.74929 11.7407 2.86844 12.4428 3.10219L13.75 3.53854V6.54519ZM16.8016 6.16384C16.7237 6.31969 16.5669 6.41684 16.3918 6.41684H14.6676V3.66684H16.3918C16.5669 3.66684 16.7237 3.764 16.8016 3.91984L17.3626 5.04184L16.8016 6.16384Z" fill="black"/>
<path d="M5.0416 3.6665H2.2916C2.0386 3.6665 1.83325 3.87185 1.83325 4.12485C1.83325 4.37785 2.0386 4.5832 2.2916 4.5832H5.0416C5.2946 4.5832 5.49995 4.37785 5.49995 4.12485C5.49995 3.87185 5.2946 3.6665 5.0416 3.6665Z" fill="black"/>
<path d="M5.0416 5.5H2.2916C2.0386 5.5 1.83325 5.70535 1.83325 5.95835C1.83325 6.21135 2.0386 6.4167 2.2916 6.4167H5.0416C5.2946 6.4167 5.49995 6.21135 5.49995 5.95835C5.49995 5.70535 5.2946 5.5 5.0416 5.5Z" fill="black"/>
</svg>
