<svg width="26" height="26" viewBox="0 0 26 26" fill="none" xmlns="http://www.w3.org/2000/svg">
<path d="M24.3751 7.58268C25.271 7.58268 26 6.85368 26 5.95782V4.87459C26 3.97873 25.271 3.24973 24.3751 3.24973H20.808C20.4581 3.24973 20.1299 3.11324 19.8829 2.86626C19.4312 2.41455 18.83 2.1665 18.192 2.1665H14.3075C13.6684 2.1665 13.0683 2.41455 12.6166 2.86626C12.3685 3.11431 12.0402 3.24973 11.6915 3.24973H10.554C10.4923 3.24973 10.4349 3.26491 10.3731 3.26704C10.3449 3.26379 10.3201 3.25186 10.2908 3.25186C10.2139 3.25186 10.1413 3.26918 10.0753 3.29736C9.24552 3.40135 8.47422 3.75882 7.87302 4.36108L6.81468 5.41831H4.87459C3.56713 5.41831 2.47304 6.35098 2.22175 7.58481H0.541638C0.242663 7.58486 0 7.82753 0 8.1265C0 8.42548 0.242663 8.66814 0.541638 8.66814H2.22175C2.47304 9.90197 3.5682 10.8346 4.87459 10.8346H6.81686L7.87302 11.8908C8.39516 12.4129 9.04399 12.7585 9.74918 12.9102V14.0844H8.12432C7.82534 14.0844 7.58268 14.327 7.58268 14.626C7.58268 14.925 7.82534 15.1676 8.12432 15.1676H8.66596V20.0422C8.66596 20.9381 9.39496 21.6671 10.2908 21.6671C11.1867 21.6671 11.9157 20.9381 11.9157 20.0422V15.1676H12.4573C12.7563 15.1676 12.999 14.925 12.999 14.626C12.999 14.327 12.7563 14.0844 12.4573 14.0844H10.8325V13.0011H12.2331L13.1571 13.9262C13.2589 14.027 13.3965 14.0844 13.5405 14.0844H18.5224L18.6556 14.6824C18.5321 14.6217 18.3859 14.6066 18.244 14.6542C17.9602 14.7484 17.8074 15.055 17.9017 15.3388L18.4433 16.9637C18.5191 17.1912 18.7304 17.3341 18.9568 17.3341C19.0131 17.3341 19.0705 17.3255 19.1279 17.306C19.1648 17.294 19.1929 17.2692 19.2254 17.2497L20.2166 21.7126C20.495 22.9616 21.5815 23.8336 22.8608 23.8336H23.4436C24.8518 23.8336 25.9979 22.6875 25.9989 21.2793C25.9989 21.1493 25.9892 21.0204 25.9697 20.8904L23.9917 8.03125C23.9689 7.87744 24.0382 7.76908 24.0816 7.71927C24.1249 7.66717 24.2202 7.58268 24.3751 7.58268ZM6.49945 9.75137H4.87459C3.97873 9.75137 3.24973 9.02236 3.24973 8.1265C3.24973 7.23064 3.97873 6.50164 4.87459 6.50164H6.49945V9.75137ZM8.63996 11.1249L7.58273 10.0677V6.18205L8.63783 5.12695C8.953 4.81178 9.3354 4.59618 9.74918 4.46838V11.7835C9.33646 11.6546 8.95406 11.439 8.63996 11.1249ZM10.8324 20.0421C10.8324 20.3411 10.5897 20.5838 10.2908 20.5838C9.99179 20.5838 9.74918 20.3411 9.74918 20.0421V15.1675H10.8324V20.0421ZM22.9203 8.19475L24.8983 21.0528C24.9103 21.1276 24.9157 21.2023 24.9157 21.2781C24.9157 22.0895 24.256 22.7492 23.4446 22.7492H22.8618C22.0949 22.7492 21.4428 22.226 21.276 21.4775L19.4864 13.4247C19.4322 13.1766 19.2113 13 18.9578 13H13.7658L12.8407 12.0749C12.7389 11.9742 12.6013 11.9167 12.4573 11.9167H10.8324V4.33295H11.6903C12.3295 4.33295 12.9295 4.08491 13.3813 3.6332C13.6294 3.38515 13.9576 3.24973 14.3064 3.24973H18.1909C18.5408 3.24973 18.869 3.38622 19.116 3.6332C19.5677 4.08491 20.1689 4.33295 20.8069 4.33295H24.374C24.673 4.33295 24.9157 4.57562 24.9157 4.87459V5.95782C24.9157 6.25679 24.673 6.49946 24.374 6.49946C23.9451 6.49946 23.5378 6.68687 23.2583 7.01291C22.9788 7.34007 22.8553 7.76903 22.9203 8.19475Z" fill="black"/>
<path d="M17.8734 4.33496H14.6237C14.3247 4.33496 14.082 4.57762 14.082 4.8766C14.082 5.17557 14.3247 5.41824 14.6237 5.41824H17.8734C18.1724 5.41824 18.415 5.17557 18.415 4.8766C18.415 4.57762 18.1724 4.33496 17.8734 4.33496Z" fill="black"/>
<path d="M20.0399 6.50195H12.4572C12.1582 6.50195 11.9155 6.74462 11.9155 7.04359C11.9155 7.34257 12.1582 7.58523 12.4572 7.58523H20.0399C20.3388 7.58523 20.5815 7.34257 20.5815 7.04359C20.5815 6.74462 20.3389 6.50195 20.0399 6.50195Z" fill="black"/>
<path d="M20.0399 8.66797H12.4572C12.1582 8.66797 11.9155 8.91063 11.9155 9.20961C11.9155 9.50858 12.1582 9.75124 12.4572 9.75124H20.0399C20.3388 9.75124 20.5815 9.50858 20.5815 9.20961C20.5815 8.91063 20.3389 8.66797 20.0399 8.66797Z" fill="black"/>
<path d="M17.8734 10.8345H14.6237C14.3247 10.8345 14.082 11.0771 14.082 11.3761C14.082 11.6751 14.3247 11.9177 14.6237 11.9177H17.8734C18.1724 11.9177 18.415 11.6751 18.415 11.3761C18.415 11.0771 18.1724 10.8345 17.8734 10.8345Z" fill="black"/>
</svg>
