<svg width="15" height="15" viewBox="0 0 15 15" fill="none" xmlns="http://www.w3.org/2000/svg">
<g opacity="0.5" clip-path="url(#clip0)">
<path d="M12.8316 2.49023H1.23645C0.555524 2.49023 0 3.04515 0 3.72669V11.9697C0 12.6489 0.553052 13.2062 1.23645 13.2062H12.8316C13.5109 13.2062 14.0681 12.6531 14.0681 11.9697V3.72669C14.0681 3.04746 13.515 2.49023 12.8316 2.49023ZM12.6609 3.31454L7.06025 8.9152L1.41118 3.31454H12.6609ZM0.824302 11.799V3.89344L4.79411 7.82921L0.824302 11.799ZM1.40717 12.3819L5.37948 8.40954L6.77136 9.78948C6.93249 9.94923 7.1925 9.94871 7.35296 9.78822L8.71012 8.43106L12.6609 12.3819H1.40717ZM13.2438 11.799L9.29299 7.8482L13.2438 3.89737V11.799Z" fill="black"/>
<rect x="14" y="4" width="5" height="18" fill="#C4C4C4"/>
<rect x="14" y="2" width="5" height="20" fill="#C4C4C4"/>
</g>
<defs>
<clipPath id="clip0">
<rect width="14.0681" height="14.0681" fill="white" transform="translate(0 0.814453)"/>
</clipPath>
</defs>
</svg>
