<svg width="12" height="15" viewBox="0 0 12 15" fill="none" xmlns="http://www.w3.org/2000/svg">
<path d="M10.1987 1.79571C9.65079 1.23328 9.01225 0.791511 8.30091 0.482681C7.56316 0.162399 6.77964 0 5.97215 0C5.16465 0 4.38115 0.162399 3.6434 0.482697C2.93206 0.791527 2.29354 1.23328 1.74558 1.79573C1.19857 2.35719 0.769178 3.01085 0.469303 3.73856C0.160741 4.48734 0.00349041 5.28204 0.00183198 6.10083C-0.000853088 6.16434 -0.00486485 6.35678 0.0250026 6.65117C0.076398 7.25503 0.214521 7.84494 0.435629 8.40481C0.7893 9.40095 1.33461 10.3889 2.05661 11.3414C2.98098 12.561 4.19261 13.7156 5.65782 14.7732L5.97213 15L6.28643 14.7731C7.75165 13.7156 8.96327 12.5609 9.88764 11.3414C10.6096 10.3889 11.1549 9.40097 11.5086 8.40485C11.7297 7.84499 11.8679 7.25504 11.9193 6.65114C11.9493 6.3552 11.9453 6.16574 11.9424 6.10008C11.9407 5.28155 11.7834 4.4871 11.475 3.73855C11.1751 3.01083 10.7457 2.35718 10.1987 1.79571ZM10.8503 6.54655L10.8495 6.55609C10.807 7.06006 10.6916 7.552 10.5066 8.01822L10.4994 8.03717C9.62507 10.5085 7.61726 12.4323 5.97213 13.6706C4.32701 12.4323 2.31921 10.5085 1.44482 8.03711L1.4377 8.01817C1.25268 7.55193 1.13732 7.06006 1.09483 6.55613L1.09393 6.5466C1.06927 6.30578 1.07415 6.16342 1.07485 6.14671L1.07583 6.13418V6.11397C1.07583 4.76513 1.58688 3.49771 2.51484 2.54524C3.43913 1.5965 4.66695 1.07403 5.97215 1.07403C7.27734 1.07403 8.50516 1.5965 9.42943 2.54521C10.3574 3.49768 10.8685 4.7651 10.8685 6.11395V6.13115L10.8694 6.14584C10.8699 6.15765 10.8755 6.30083 10.8503 6.54655Z" fill="black"/>
<path d="M5.972 2.22363C5.0101 2.22363 4.10577 2.59822 3.42561 3.27839C2.74543 3.95857 2.37085 4.8629 2.37085 5.82478C2.37085 6.78669 2.74543 7.69102 3.42561 8.3712C4.10577 9.05137 5.01008 9.42594 5.972 9.42594C6.93391 9.42594 7.83823 9.05135 8.51839 8.3712C9.19855 7.69105 9.57314 6.7867 9.57314 5.82478C9.57314 4.8629 9.19856 3.95857 8.51839 3.27839C7.83823 2.59822 6.9339 2.22363 5.972 2.22363ZM5.972 8.35191C4.57854 8.35191 3.44488 7.21826 3.44488 5.82478C3.44488 4.43131 4.57854 3.29766 5.972 3.29766C7.36545 3.29766 8.49912 4.43131 8.49912 5.82478C8.49912 7.21826 7.36544 8.35191 5.972 8.35191Z" fill="black"/>
</svg>
