<svg width="20" height="20" viewBox="0 0 20 20" fill="none" xmlns="http://www.w3.org/2000/svg">
<g clip-path="url(#clip0)">
<path d="M19.8778 8.03897L18.2112 6.37233C18.1329 6.29565 18.027 6.25065 17.9162 6.25065H17.4996V5.83398C17.4996 5.72317 17.4562 5.61731 17.3779 5.53899L14.0446 2.20576C13.3755 1.53745 12.2564 0.41748 9.99975 0.41748C7.74398 0.41748 6.70983 1.45077 5.95485 2.20576C5.83653 2.32493 5.80067 2.50493 5.86485 2.66074C5.92903 2.81574 6.08153 2.91742 6.24984 2.91742C9.61058 2.91742 9.99975 4.34406 9.99975 5.41735C9.99975 6.714 8.92059 7.58062 8.90895 7.58898C8.90227 7.5948 8.89895 7.60316 8.89227 7.60898C8.88559 7.6148 8.8781 7.61648 8.87228 7.6223L0.629984 15.8638C0.224174 16.2696 0 16.8104 0 17.4329C0 18.6187 0.964155 19.5828 2.14995 19.5828C2.75411 19.5828 3.3341 19.3261 3.74158 18.8795L11.5306 10.3122C12.6539 9.47643 13.7738 8.96726 14.1663 9.00144V9.58393C14.1663 9.69475 14.2105 9.8006 14.288 9.87892L16.3713 11.9622C16.4496 12.0389 16.5554 12.0839 16.6663 12.0839C16.6713 12.0839 16.6754 12.0839 16.6804 12.0839C16.7954 12.0805 16.9038 12.0289 16.9796 11.9422L19.8962 8.60895C20.0412 8.4431 20.0337 8.19478 19.8778 8.03897ZM3.1241 18.3187C2.87493 18.5937 2.51994 18.7504 2.14995 18.7504C1.42414 18.7504 0.833299 18.1587 0.833299 17.3837C0.833299 17.0321 0.969975 16.7012 1.21911 16.4529L9.16641 8.50563L10.6747 10.0139L3.1241 18.3187ZM16.6463 11.0572L14.9996 9.41057V8.75059C14.9996 8.63977 14.9554 8.53391 14.8779 8.4556C14.0913 7.66894 12.2822 8.75309 11.293 9.45389L9.76475 7.92561C10.1831 7.48312 10.833 6.60396 10.833 5.41735C10.833 3.46658 9.6339 2.36411 7.26396 2.13076C7.8723 1.64577 8.6731 1.25078 9.99975 1.25078C11.9114 1.25078 12.8397 2.17994 13.4547 2.79492L16.6663 6.00566V6.66732C16.6663 6.89732 16.8529 7.08399 17.0829 7.08399H17.7437L19.0129 8.35314L16.6463 11.0572Z" fill="black"/>
</g>
<defs>
<clipPath id="clip0">
<rect width="20" height="20" fill="white"/>
</clipPath>
</defs>
</svg>
