<svg width="17" height="16" viewBox="0 0 17 16" fill="none" xmlns="http://www.w3.org/2000/svg">
<path d="M12.3982 0H4.60174C2.0643 0 0 1.94287 0 4.33105V11.669C0 14.0571 2.0643 16 4.60174 16H12.3984C14.9357 16 17 14.0571 17 11.669V4.33105C17 1.94287 14.9357 0 12.3982 0V0ZM16.0034 11.669C16.0034 13.5399 14.3861 15.062 12.3982 15.062H4.60174C2.61383 15.062 0.996611 13.5399 0.996611 11.669V4.33105C0.996611 2.46008 2.61383 0.937986 4.60174 0.937986H12.3984C14.3861 0.937986 16.0034 2.46008 16.0034 4.33105V11.669Z" fill="#818181"/>
<path d="M8.49998 3.625C5.93686 3.625 3.85168 5.58752 3.85168 7.99987C3.85168 10.4122 5.93686 12.3747 8.49998 12.3747C11.0631 12.3747 13.1483 10.4122 13.1483 7.99987C13.1483 5.58752 11.0631 3.625 8.49998 3.625ZM8.49998 11.4368C6.48653 11.4368 4.8483 9.89501 4.8483 7.99987C4.8483 6.10485 6.48653 4.56299 8.49998 4.56299C10.5136 4.56299 12.1517 6.10485 12.1517 7.99987C12.1517 9.89501 10.5136 11.4368 8.49998 11.4368Z" fill="#818181"/>
<path d="M13.2594 2.07129C12.5019 2.07129 11.8859 2.65124 11.8859 3.36401C11.8859 4.0769 12.5019 4.65685 13.2594 4.65685C14.0168 4.65685 14.633 4.0769 14.633 3.36401C14.633 2.65112 14.0168 2.07129 13.2594 2.07129ZM13.2594 3.71875C13.0516 3.71875 12.8825 3.55957 12.8825 3.36401C12.8825 3.16833 13.0516 3.00928 13.2594 3.00928C13.4673 3.00928 13.6364 3.16833 13.6364 3.36401C13.6364 3.55957 13.4673 3.71875 13.2594 3.71875Z" fill="#818181"/>
</svg>
