<svg width="20" height="20" viewBox="0 0 20 20" fill="none" xmlns="http://www.w3.org/2000/svg">
<path d="M18.3334 2.5H14.5834V2.08332C14.5834 0.935 13.6484 0 12.5001 0H7.50007C6.35175 0 5.41675 0.935 5.41675 2.08332V2.5H1.66675C0.977568 2.5 0.416748 3.06082 0.416748 3.75C0.416748 4.43918 0.977568 5 1.66675 5H5.41675V7.08332C5.41675 8.08914 6.13425 8.93082 7.08343 9.12414V9.58246C7.08343 9.69328 7.12675 9.79914 7.20511 9.87746L7.91679 10.5891V12.9166C7.91679 13.6058 8.47761 14.1666 9.16679 14.1666H9.58347V17.2425L8.98015 17.5441C8.80597 17.6316 8.71515 17.8283 8.76265 18.0175L9.17933 19.6841C9.22601 19.87 9.39265 20 9.58351 20H10.4168C10.6076 20 10.7743 19.87 10.8201 19.6841L11.2368 18.0175C11.2843 17.8283 11.1935 17.6316 11.0193 17.5441L10.4168 17.2425V14.1666H10.8335C11.5227 14.1666 12.0835 13.6058 12.0835 12.9166V10.5891L12.7952 9.87746C12.8727 9.79914 12.9169 9.69328 12.9169 9.58246V9.12414C13.866 8.93082 14.5835 8.08832 14.5835 7.08332V5H18.3335C19.0227 5 19.5835 4.43918 19.5835 3.75C19.5834 3.06082 19.0226 2.5 18.3334 2.5ZM5.41675 4.16668H1.66675C1.43675 4.16668 1.25007 3.98 1.25007 3.75C1.25007 3.52 1.43675 3.33332 1.66675 3.33332H5.41675V4.16668ZM10.0917 19.1667H9.90925L9.65343 18.14L10.0009 17.9658L10.3484 18.14L10.0917 19.1667ZM12.0834 9.41L11.3717 10.1217C11.2942 10.2 11.25 10.3059 11.25 10.4167V12.9167C11.25 13.1467 11.0634 13.3334 10.8334 13.3334H9.16667C8.93667 13.3334 8.74999 13.1467 8.74999 12.9167V10.4167C8.74999 10.3059 8.70667 10.2 8.62831 10.1217L7.91663 9.41V9.16668H12.0833V9.41H12.0834ZM13.7501 2.91668V4.58336V7.08336C13.7501 7.77168 13.1909 8.33168 12.5026 8.33336C12.5017 8.33336 12.5009 8.33254 12.5001 8.33254C12.4984 8.33254 12.4976 8.33336 12.4959 8.33336H7.50425C7.50257 8.33336 7.50175 8.33254 7.50007 8.33254C7.49925 8.33254 7.49839 8.33336 7.49757 8.33336C6.80925 8.33168 6.25007 7.77168 6.25007 7.08336V4.58336V2.91668V2.08332C6.25007 1.39414 6.81089 0.83332 7.50007 0.83332H7.91675V3.75C7.91675 3.98 8.10343 4.16668 8.33343 4.16668C8.56343 4.16668 8.75007 3.98 8.75007 3.75V0.83332H9.58339V3.75C9.58339 3.98 9.77007 4.16668 10.0001 4.16668C10.2301 4.16668 10.4167 3.98 10.4167 3.75V0.83332H11.2501V3.75C11.2501 3.98 11.4367 4.16668 11.6667 4.16668C11.8967 4.16668 12.0834 3.98 12.0834 3.75V0.83332H12.5001C13.1892 0.83332 13.7501 1.39414 13.7501 2.08332V2.91668ZM18.3334 4.16668H14.5834V3.33332H18.3334C18.5634 3.33332 18.7501 3.52 18.7501 3.75C18.7501 3.98 18.5634 4.16668 18.3334 4.16668Z" fill="black"/>
</svg>
