<svg width="25" height="25" viewBox="0 0 25 25" fill="none" xmlns="http://www.w3.org/2000/svg">
<path d="M19.2235 10.0063C17.9925 8.71212 16.3511 7.79672 14.5202 7.41793V6.28157C14.5202 6.02904 14.4255 5.77652 14.2362 5.61869C14.0468 5.46086 13.8258 5.3346 13.5733 5.3346H13.0682L13.0367 0.473485C13.0367 0.189394 12.8157 0 12.5632 0C12.2791 0 12.0897 0.22096 12.0897 0.473485L12.1213 5.3346H11.6162C11.3637 5.3346 11.1112 5.42929 10.9533 5.61869C10.7955 5.80808 10.6692 6.02904 10.6692 6.28157V7.38636C8.74373 7.79672 7.07075 8.71212 5.77656 10.0063C4.04045 11.7424 2.99878 14.1098 2.99878 16.7614C2.99878 17.0455 3.21974 17.2348 3.47226 17.2348H8.52277C8.64903 18.1503 9.02782 18.971 9.65913 19.6023C10.3851 20.3283 11.3952 20.7702 12.5 20.7702C13.6048 20.7702 14.6149 20.3283 15.341 19.6023C15.9723 18.971 16.3511 18.1503 16.4773 17.2348H21.5278C21.8119 17.2348 22.0013 17.0139 22.0013 16.7614C22.0013 14.1414 20.9281 11.7424 19.2235 10.0063ZM11.5846 6.31313H13.5417V7.2601C13.5101 7.2601 13.5101 7.2601 13.4786 7.2601C13.4154 7.2601 13.3839 7.2601 13.3207 7.2601C13.0682 7.22854 12.7841 7.22854 12.5316 7.22854C12.2791 7.19697 12.0266 7.22854 11.774 7.22854C11.7109 7.22854 11.6478 7.22854 11.5846 7.2601V6.31313ZM14.6781 18.9078C14.1099 19.476 13.3523 19.7917 12.5316 19.7917C11.6793 19.7917 10.9218 19.4444 10.3851 18.9078C9.94322 18.4659 9.62757 17.8977 9.53287 17.2348H12.5316H15.5619C15.4356 17.8662 15.1516 18.4659 14.6781 18.9078ZM16.067 16.2563H12.5316H8.99625H3.97731C4.10358 14.0783 5.01898 12.1212 6.471 10.7008C7.79676 9.375 9.53287 8.49116 11.4899 8.2702C11.5531 8.2702 11.6478 8.23864 11.7109 8.23864C11.9634 8.20707 12.2475 8.20707 12.5 8.20707C12.7841 8.20707 13.0367 8.20707 13.3207 8.23864C13.3839 8.23864 13.4786 8.2702 13.5417 8.2702C15.4988 8.49116 17.2349 9.375 18.5606 10.7008C20.0127 12.1528 20.9281 14.0783 21.0543 16.2563H16.067Z" fill="black"/>
<path d="M12.5316 21.4331C12.2475 21.4331 12.0581 21.6541 12.0581 21.9066V24.5266C12.0581 24.8107 12.2791 25.0001 12.5316 25.0001C12.8157 25.0001 13.0051 24.7791 13.0051 24.5266V21.9066C13.0051 21.6225 12.8157 21.4331 12.5316 21.4331Z" fill="black"/>
<path d="M16.8559 23.2325L15.5302 20.9598C15.4039 20.7389 15.0882 20.6442 14.8673 20.7704C14.6463 20.8967 14.5516 21.2123 14.6779 21.4333L16.0037 23.706C16.1299 23.927 16.4456 24.0217 16.6665 23.8954C16.8875 23.7692 16.9822 23.4535 16.8559 23.2325Z" fill="black"/>
<path d="M19.5075 20.2336L17.2348 18.9079C17.0138 18.7816 16.6982 18.8447 16.5719 19.0973C16.4457 19.3182 16.5088 19.6339 16.7613 19.7601L19.034 21.0859C19.255 21.2121 19.5707 21.149 19.6969 20.8965C19.8232 20.6755 19.7601 20.3599 19.5075 20.2336Z" fill="black"/>
<path d="M8.49112 19.0975C8.36486 18.8765 8.0492 18.7819 7.82824 18.9081L5.55552 20.2339C5.33456 20.3601 5.23986 20.6758 5.36612 20.8967C5.49239 21.1177 5.80804 21.2124 6.029 21.0861L8.30173 19.7604C8.52269 19.6026 8.61739 19.3185 8.49112 19.0975Z" fill="black"/>
<path d="M10.1958 20.7704C9.97484 20.6442 9.65919 20.7389 9.53293 20.9598L8.20717 23.2325C8.08091 23.4535 8.14404 23.7692 8.39657 23.8954C8.61753 24.0217 8.93318 23.9586 9.05944 23.706L10.3852 21.4333C10.5115 21.2123 10.4483 20.8967 10.1958 20.7704Z" fill="black"/>
</svg>
