<svg width="26" height="26" viewBox="0 0 26 26" fill="none" xmlns="http://www.w3.org/2000/svg">
<g clip-path="url(#clip0)">
<path d="M11.2374 17.6268C12.8194 17.6268 14.1019 16.3443 14.1019 14.7624C14.1019 13.1804 12.8194 11.8979 11.2374 11.8979C9.65548 11.8979 8.37305 13.1804 8.37305 14.7624C8.37547 16.3433 9.65649 17.6243 11.2374 17.6268ZM11.2374 12.7793C12.3327 12.7793 13.2205 13.6671 13.2205 14.7624C13.2205 15.8576 12.3327 16.7454 11.2374 16.7454C10.1422 16.7454 9.2544 15.8576 9.2544 14.7624C9.25682 13.6681 10.1432 12.7817 11.2374 12.7793Z" fill="black"/>
<path d="M1.084 12.2157C0.447981 12.332 -0.0106108 12.8912 -6.596e-05 13.5377V16.0319C-0.0106108 16.6784 0.447981 17.2377 1.084 17.354L3.66197 17.8211C3.68841 17.8916 3.71926 17.9621 3.7501 18.0282L2.25621 20.1391C1.89281 20.665 1.95774 21.3755 2.41044 21.8269L4.17315 23.5896C4.6256 24.0409 5.33608 24.1039 5.86095 23.7394L8.01587 22.2455L8.22299 22.3336L8.6901 24.9116C8.8064 25.5476 9.36566 26.0062 10.0121 25.9957H12.5064C13.1529 26.0062 13.7121 25.5476 13.8284 24.9116L14.2955 22.3336L14.5026 22.2455L16.6576 23.7394C17.1835 24.1028 17.894 24.0379 18.3454 23.5852L19.7643 22.1706C19.942 22.0027 19.9499 21.7225 19.782 21.5448C19.614 21.3672 19.3339 21.3593 19.1562 21.5272L17.7196 22.9638C17.57 23.1136 17.335 23.1358 17.1599 23.0167L15.3972 21.7916C16.4184 21.1895 17.2942 20.3694 17.962 19.3899C18.0983 19.1879 18.045 18.9137 17.843 18.7774C17.641 18.6411 17.3667 18.6944 17.2304 18.8964C15.1383 21.9443 11.0922 22.9372 7.82682 21.2041C4.56141 19.4709 3.11621 15.5635 4.468 12.1227C5.81978 8.68183 9.53821 6.803 13.1101 7.75602C13.2628 7.79538 13.4249 7.75027 13.5354 7.6377C13.6458 7.52512 13.6878 7.36217 13.6455 7.21024C13.6033 7.0583 13.4832 6.94046 13.3304 6.9011C11.9677 6.54864 10.5376 6.54864 9.17485 6.9011L9.55383 4.79025C9.5926 4.57825 9.77902 4.42538 9.99451 4.4289H11.4576C11.7009 4.4289 11.8982 4.2316 11.8982 3.98822C11.8982 3.74484 11.7009 3.54754 11.4576 3.54754H9.9901C9.34363 3.537 8.78437 3.99559 8.66807 4.63161L8.20095 7.20958L7.99383 7.29771L5.86095 5.78178C5.33505 5.41838 4.62448 5.48332 4.17315 5.93602L2.41044 7.69873C1.95914 8.15117 1.89607 8.86166 2.26061 9.38652L3.75451 11.5414C3.72366 11.6075 3.69282 11.678 3.66637 11.7486L1.084 12.2157ZM0.88129 16.0099V13.5157C0.877775 13.3002 1.03064 13.1138 1.24265 13.075L3.34909 12.696C2.99651 14.0483 2.99651 15.4684 3.34909 16.8208L1.24265 16.4418C1.03393 16.4036 0.882068 16.2221 0.88129 16.0099ZM13.2996 22.6509L12.9206 24.7574C12.8818 24.9694 12.6954 25.1222 12.4799 25.1187H9.9901C9.77461 25.1222 9.58819 24.9694 9.54943 24.7574L9.17044 22.6509C10.5239 23.0065 11.9462 23.0065 13.2996 22.6509ZM7.1301 21.8004L5.36739 23.0211C5.19338 23.1413 4.95848 23.121 4.80773 22.9726L3.04502 21.2099C2.89524 21.0603 2.87304 20.8253 2.99214 20.6503L4.21282 18.8875C4.91888 20.0915 5.92175 21.0944 7.1257 21.8004H7.1301ZM3.02739 8.32449L4.7901 6.56178C4.93973 6.412 5.17473 6.3898 5.34977 6.5089L7.11248 7.72958C5.90205 8.43752 4.89432 9.44525 4.18638 10.6557L2.9657 8.89296C2.84384 8.71404 2.86999 8.47311 3.02739 8.32449Z" fill="black"/>
<path d="M25.1186 0H13.661C13.1742 0 12.7796 0.394596 12.7796 0.881356V4.84746C12.7756 5.16088 12.9452 5.45085 13.2203 5.60102C13.398 5.70661 13.6053 5.75147 13.8108 5.72881C15.0755 8.89729 14.7847 8.16136 15.2342 9.28068C14.8322 9.36916 14.5451 9.72404 14.5423 10.1356V11.4576C14.5423 11.9444 14.9369 12.339 15.4237 12.339H15.8644V13.661C15.8644 14.1478 16.259 14.5424 16.7457 14.5424H17.1864V17.1864C17.1864 17.3251 17.2517 17.4558 17.3627 17.539L18.9491 18.7288V20.2712C18.9491 20.5146 19.1464 20.7119 19.3898 20.7119C19.6332 20.7119 19.8305 20.5146 19.8305 20.2712V18.7288L21.4169 17.539C21.5279 17.4558 21.5932 17.3251 21.5932 17.1864V14.5424H22.0339C22.5206 14.5424 22.9152 14.1478 22.9152 13.661V12.339H23.3559C23.8427 12.339 24.2373 11.9444 24.2373 11.4576V10.1356C24.2355 9.72667 23.9527 9.37268 23.5542 9.28068L24.9776 5.72881H25.1186C25.6054 5.72881 26 5.33422 26 4.84746V0.881356C26 0.394596 25.6054 0 25.1186 0V0ZM20.7118 16.9661L19.3898 17.9576L18.0678 16.9661V14.5424H20.7118V16.9661ZM23.3559 11.4576H19.3898C19.1464 11.4576 18.9491 11.6549 18.9491 11.8983C18.9491 12.1417 19.1464 12.339 19.3898 12.339H22.0339V13.661H16.7457V12.339H17.6271C17.8705 12.339 18.0678 12.1417 18.0678 11.8983C18.0678 11.6549 17.8705 11.4576 17.6271 11.4576H15.4237V10.1356H23.3559V11.4576ZM22.6156 9.25424H16.164L14.7539 5.72881H24.0081L22.6156 9.25424ZM25.1186 4.84746H13.661V0.881356H25.1186V4.84746Z" fill="black"/>
<path d="M14.9829 2.64405H15.8643C16.1077 2.64405 16.305 2.44675 16.305 2.20337C16.305 1.95999 16.1077 1.7627 15.8643 1.7627H14.9829C14.7395 1.7627 14.5422 1.95999 14.5422 2.20337C14.5422 2.44675 14.7395 2.64405 14.9829 2.64405Z" fill="black"/>
<path d="M17.6272 2.64405H23.7967C24.0401 2.64405 24.2374 2.44675 24.2374 2.20337C24.2374 1.95999 24.0401 1.7627 23.7967 1.7627H17.6272C17.3838 1.7627 17.1865 1.95999 17.1865 2.20337C17.1865 2.44675 17.3838 2.64405 17.6272 2.64405Z" fill="black"/>
<path d="M8.76504 9.93764C8.65506 9.72157 8.39119 9.63493 8.17453 9.74375C6.31487 10.6736 5.28809 12.5332 5.28809 14.9834C5.28809 15.2268 5.48538 15.4241 5.72876 15.4241C5.97215 15.4241 6.16944 15.2268 6.16944 14.9834C6.16944 12.8858 7.01995 11.3037 8.57114 10.5282C8.78722 10.4182 8.87386 10.1543 8.76504 9.93764Z" fill="black"/>
<path d="M9.69483 9.69435C9.93821 9.69435 10.1355 9.49705 10.1355 9.25367C10.1355 9.01029 9.93821 8.81299 9.69483 8.81299C9.45145 8.81299 9.25415 9.01029 9.25415 9.25367C9.25415 9.49705 9.45145 9.69435 9.69483 9.69435Z" fill="black"/>
</g>
<defs>
<clipPath id="clip0">
<rect width="26" height="26" fill="white"/>
</clipPath>
</defs>
</svg>
