<svg width="19" height="19" viewBox="0 0 19 19" fill="none" xmlns="http://www.w3.org/2000/svg">
<g clip-path="url(#clip0)">
<path d="M0.0444845 7.17603C-0.00376623 8.19158 0.14844 9.18659 0.496929 10.1334C0.83338 11.0476 1.33762 11.8781 1.99565 12.6017C2.65369 13.3254 3.43258 13.9061 4.31073 14.3278C5.22022 14.7644 6.19632 15.0104 7.21184 15.0586C7.3324 15.0643 7.45454 15.0673 7.57487 15.0673C8.93988 15.0673 10.2572 14.701 11.4087 14.0169L16.3918 19L18.9641 16.4277L13.9995 11.463C14.6541 10.3942 15.0336 9.17201 15.0945 7.89118C15.1427 6.87561 14.9905 5.88062 14.642 4.93379C14.3055 4.01964 13.8013 3.18917 13.1433 2.46549C12.4852 1.74181 11.7063 1.16109 10.8282 0.739464C9.91873 0.302784 8.94261 0.0568865 7.92707 0.00863584C7.80651 0.00289219 7.68437 0 7.56402 0C5.62651 0 3.78451 0.736959 2.37732 2.07513C0.965484 3.41773 0.136994 5.22926 0.0444845 7.17603ZM3.33176 3.07876C4.48033 1.98651 5.98337 1.38499 7.56402 1.38499C7.66253 1.38499 7.76254 1.38738 7.86132 1.39206C9.50181 1.47001 11.0137 2.18214 12.1186 3.39724C13.2234 4.61235 13.789 6.18499 13.7111 7.82545C13.6668 8.75601 13.4163 9.64849 12.9851 10.4486C12.68 11.0146 12.2846 11.5345 11.8072 11.9885C11.3794 12.3953 10.9024 12.7339 10.3906 12.9988C9.52824 13.4452 8.56689 13.6823 7.57489 13.6823C7.47638 13.6823 7.37637 13.6799 7.27761 13.6752C5.63713 13.5973 4.12522 12.8851 3.02037 11.67C1.91551 10.4549 1.34994 8.88226 1.42791 7.24178C1.50343 5.65291 2.17955 4.17447 3.33176 3.07876ZM17.0055 16.4276L16.3918 17.0413L12.5425 13.1919C12.6165 13.1267 12.6898 13.0604 12.7616 12.9921C12.9004 12.8601 13.0333 12.7235 13.1607 12.5827L17.0055 16.4276Z" fill="white"/>
</g>
<defs>
<clipPath id="clip0">
<rect width="19" height="19" fill="white"/>
</clipPath>
</defs>
</svg>
