<svg width="24" height="24" viewBox="0 0 24 24" fill="none" xmlns="http://www.w3.org/2000/svg">
<g clip-path="url(#clip0)">
<path d="M24 17.0564C24 16.7975 23.7901 16.5877 23.5312 16.5877C23.2724 16.5877 23.0625 16.7975 23.0625 17.0564V18.2213L18.1486 8.38188V7.45605C18.1486 7.19716 17.9387 6.9873 17.6798 6.9873C17.421 6.9873 17.2111 7.19716 17.2111 7.45605V8.02235H7.2547V7.45605C7.2547 7.19716 7.04484 6.9873 6.78595 6.9873C6.52706 6.9873 6.3172 7.19716 6.3172 7.45605V8.37279L0.9375 18.3518V17.0565C0.9375 16.7976 0.727641 16.5877 0.46875 16.5877C0.209859 16.5877 0 16.7976 0 17.0565V22.6758C0 22.9346 0.209859 23.1445 0.46875 23.1445H23.5312C23.7901 23.1445 24 22.9346 24 22.6758V17.0564ZM13.383 19.7403L9.26522 12.1023H18.9586L22.7731 19.7403H13.383ZM17.3894 8.9598L18.4905 11.1647H8.75981L7.57116 8.9598H17.3894ZM6.3172 10.3484V11.6335C6.3172 11.8924 6.52706 12.1023 6.78595 12.1023C7.04484 12.1023 7.2547 11.8924 7.2547 11.6335V10.3484L12.318 19.7403H10.3662L7.19859 13.8646C7.1168 13.7129 6.95836 13.6183 6.786 13.6183C6.61364 13.6183 6.45516 13.7129 6.37341 13.8646L3.20569 19.7403H1.25395L6.3172 10.3484ZM4.27073 19.7403L6.78591 15.0748L9.30108 19.7403H4.27073ZM23.0625 22.207H0.9375V20.6778H23.0625V22.207Z" fill="black"/>
</g>
<defs>
<clipPath id="clip0">
<rect width="24" height="24" fill="white"/>
</clipPath>
</defs>
</svg>
