<svg width="28" height="28" viewBox="0 0 28 28" fill="none" xmlns="http://www.w3.org/2000/svg">
<path d="M12.25 27.125C12.3587 27.125 12.4635 27.0845 12.544 27.0115C12.6245 26.9385 12.6749 26.8381 12.6854 26.7299L12.8559 24.9812L14 13.5723L15.144 24.9801L15.3146 26.7301C15.3252 26.8382 15.3756 26.9386 15.4561 27.0116C15.5366 27.0846 15.6413 27.125 15.75 27.125H20.125C20.241 27.125 20.3523 27.0789 20.4344 26.9969C20.5164 26.9148 20.5625 26.8035 20.5625 26.6875V3.9375C20.5625 3.92935 20.5617 3.92142 20.5613 3.91338C20.561 3.90791 20.561 3.90283 20.5605 3.89752C20.5575 3.86497 20.5509 3.83285 20.5408 3.80177C20.5408 3.80089 20.5404 3.80002 20.5401 3.79914L19.6651 1.17414C19.636 1.08703 19.5803 1.01126 19.5058 0.957569C19.4313 0.90388 19.3418 0.874993 19.25 0.875H8.75C8.65818 0.875005 8.56869 0.903897 8.49421 0.957585C8.41972 1.01127 8.36401 1.08704 8.33498 1.17414L7.45998 3.79914C7.45998 3.79991 7.45959 3.80073 7.45932 3.80149C7.44913 3.83264 7.44249 3.86483 7.43952 3.89747C7.43903 3.90294 7.43898 3.90841 7.4387 3.91388C7.43827 3.92186 7.4375 3.92973 7.4375 3.93777V26.6875C7.4375 26.8035 7.48359 26.9148 7.56564 26.9969C7.64769 27.0789 7.75897 27.125 7.875 27.125H12.25ZM8.3125 4.375H10.0625C10.0625 7.16822 8.95398 7.97989 8.3125 8.21581V4.375ZM19.6875 8.21581C19.0461 7.97995 17.9375 7.16827 17.9375 4.375H19.6875V8.21581ZM13.125 3.5V1.75H17.5V3.5H13.125ZM14.4375 4.375H15.3125V7.4375C15.3122 7.70885 15.2279 7.97346 15.0713 8.19503C14.9146 8.41659 14.6932 8.58426 14.4375 8.67502V4.375ZM12.25 3.5H10.5V1.75H12.25V3.5ZM8.3125 26.25V25.375H11.9383L11.853 26.25H8.3125ZM12.0248 24.5H8.3125V9.12734C8.73777 9.023 9.13312 8.82166 9.46761 8.53907C10.443 7.72641 10.9375 6.32538 10.9375 4.375H13.5625V9.16563L12.0248 24.5ZM14.4782 9.57168C14.9629 9.46247 15.3961 9.19176 15.7067 8.80397C16.0173 8.41617 16.1868 7.93433 16.1875 7.4375V4.375H17.0625C17.0625 6.32538 17.557 7.72641 18.5324 8.53923C18.8669 8.82177 19.2623 9.02306 19.6875 9.12734V24.5H15.9752L14.4782 9.57168ZM16.1469 26.25L16.0616 25.375H19.6875V26.25H16.1469ZM19.518 3.5H18.375V1.75H18.9347L19.518 3.5ZM9.06533 1.75H9.625V3.5H8.48203L9.06533 1.75Z" fill="black"/>
</svg>
