<svg width="24" height="24" viewBox="0 0 24 24" fill="none" xmlns="http://www.w3.org/2000/svg">
<g clip-path="url(#clip0)">
<path d="M12.272 9.11729C14.6564 9.11729 16.5963 7.17745 16.5963 4.79302C16.5963 2.40859 14.6564 0.46875 12.272 0.46875C9.88762 0.46875 7.94774 2.40859 7.94774 4.79302C7.94774 7.17745 9.88758 9.11729 12.272 9.11729ZM12.272 2.27053C13.6629 2.27053 14.7945 3.40214 14.7945 4.79302C14.7945 6.1839 13.6629 7.31551 12.272 7.31551C10.8811 7.31551 9.74952 6.1839 9.74952 4.79302C9.74952 3.40214 10.8811 2.27053 12.272 2.27053ZM20.3616 22.4494L18.1783 11.8189C18.0922 11.4 17.7235 11.0992 17.2958 11.0992H14.4553C14.2164 11.0992 13.9872 11.1941 13.8182 11.3631L12.272 12.9094L10.7257 11.3631C10.5568 11.1942 10.3276 11.0992 10.0887 11.0992H7.24815C6.82046 11.0992 6.45172 11.4 6.36569 11.8189L4.18238 22.4494C4.06788 23.0071 4.49405 23.5315 5.06489 23.5315H19.4791C20.0484 23.5315 20.4764 23.0085 20.3616 22.4494ZM6.16961 21.7297L7.98287 12.901H9.71555L11.635 14.8205C11.9868 15.1723 12.5572 15.1723 12.909 14.8205L14.8285 12.901H16.5611L18.3744 21.7297H6.16961Z" fill="#2F2F2F"/>
</g>
<defs>
<clipPath id="clip0">
<rect width="23.0628" height="23.0628" fill="white" transform="translate(0.740723 0.46875)"/>
</clipPath>
</defs>
</svg>
