<svg width="22" height="22" viewBox="0 0 22 22" fill="none" xmlns="http://www.w3.org/2000/svg">
<g clip-path="url(#clip0)">
<mask id="path-1-inside-1" fill="white">
<path d="M21.0225 14.4237C20.5439 13.8502 20.0033 13.3382 19.4804 12.8429C19.2967 12.6689 19.1066 12.4889 18.9235 12.3102C18.6773 12.07 18.5566 11.8994 18.5441 11.7735C18.5317 11.6498 18.6162 11.4662 18.8108 11.1948C19.1016 10.7866 19.4116 10.3777 19.7116 9.98229C19.9781 9.6308 20.2537 9.26733 20.5179 8.90179L20.5772 8.81972C21.0926 8.10635 21.6255 7.3687 21.9111 6.46979C21.9927 6.21207 22.0773 5.83067 21.8731 5.49586C21.6687 5.16096 21.2899 5.0617 21.0228 5.01624C20.8924 4.9939 20.7687 4.99205 20.6535 4.99205L17.3103 4.98908C16.7323 4.97946 16.3313 5.25343 16.1127 5.8036C15.9379 6.243 15.7313 6.75223 15.492 7.23528C15.0342 8.16784 14.4524 9.24193 13.6092 10.1368L13.5717 10.1767C13.5143 10.238 13.4205 10.3382 13.3724 10.3612C13.281 10.3038 13.1756 9.97545 13.1804 9.80345C13.1805 9.7992 13.1806 9.79499 13.1806 9.79077L13.1776 5.92774C13.1776 5.9081 13.1763 5.88847 13.1736 5.869C13.0987 5.31788 12.9525 4.76539 12.0802 4.59325C12.0522 4.58771 12.0238 4.58496 11.9953 4.58496H8.51765C7.86336 4.58496 7.51729 4.88458 7.23984 5.20943C7.15953 5.30413 6.94615 5.55559 7.05486 5.86299C7.16486 6.17404 7.49263 6.23613 7.60022 6.25649C7.97921 6.32842 8.17519 6.54262 8.23586 6.95212C8.35579 7.74777 8.37048 8.59895 8.28218 9.62947C8.25756 9.90615 8.21176 10.1164 8.13785 10.2913C8.1174 10.3397 8.09943 10.3697 8.08689 10.3874C8.06686 10.3793 8.03571 10.3639 7.99257 10.3343C7.72625 10.1521 7.52554 9.86881 7.33145 9.59492C6.55621 8.50037 5.90411 7.29149 5.33765 5.89865C5.10437 5.32789 4.66583 5.00911 4.10363 5.00086C3.0325 4.98303 2.04185 4.98345 1.07608 5.00223C0.620569 5.01014 0.301138 5.15353 0.126513 5.42848C-0.0483278 5.70396 -0.0419254 6.05519 0.145591 6.47259C1.48605 9.45334 2.70319 11.6217 4.09194 13.5035C5.06978 14.8283 6.05412 15.7479 7.18965 16.3976C8.38273 17.0802 9.72826 17.4147 11.2892 17.4147C11.4667 17.4147 11.6473 17.4103 11.8303 17.4016C12.7934 17.3577 13.1852 16.9747 13.228 16.0367C13.252 15.541 13.3071 15.1394 13.4986 14.7905C13.5521 14.6928 13.6125 14.6273 13.6601 14.6153C13.7107 14.6027 13.8005 14.6337 13.9003 14.6985C14.0828 14.817 14.2399 14.9777 14.3692 15.1188C14.5001 15.2622 14.6325 15.4103 14.7606 15.5535C15.0331 15.8585 15.3149 16.1738 15.6102 16.4746C16.2781 17.1554 17.048 17.4676 17.8995 17.4022L20.9591 17.4036C20.9688 17.4036 20.9787 17.4033 20.9884 17.4027C21.3413 17.3792 21.6465 17.1838 21.8256 16.8665C22.0414 16.4844 22.0381 16.0005 21.8167 15.5714C21.5857 15.1254 21.286 14.7414 21.0225 14.4237ZM21.0625 16.4356C21.0203 16.5103 20.9682 16.5239 20.9414 16.5272L17.8824 16.5258C17.8703 16.5258 17.858 16.5262 17.846 16.5273C17.2433 16.5775 16.7311 16.3656 16.2358 15.8607C15.9548 15.5745 15.6799 15.2669 15.414 14.9695C15.2845 14.8246 15.1505 14.6747 15.016 14.5274C14.8491 14.3451 14.6428 14.1356 14.3777 13.9635C13.9808 13.7059 13.652 13.7137 13.446 13.7656C13.2422 13.8169 12.9525 13.9634 12.7302 14.3692C12.4421 14.8943 12.3785 15.4607 12.3527 15.9958C12.3377 16.323 12.2824 16.4095 12.2593 16.4314C12.229 16.4602 12.1277 16.5109 11.7899 16.5263C10.1668 16.6026 8.80455 16.3119 7.62493 15.637C6.59875 15.0499 5.70018 14.2065 4.79719 12.9831C3.44689 11.1536 2.2588 9.03486 0.945027 6.11341C0.897418 6.00758 0.882722 5.94153 0.878468 5.90617C0.911984 5.89517 0.977469 5.88069 1.09228 5.87858C2.04825 5.86006 3.02855 5.85955 4.09001 5.87725C4.23533 5.8794 4.4008 5.92301 4.5261 6.2296C5.11795 7.68491 5.80163 8.95142 6.61632 10.1016C6.83263 10.4069 7.10187 10.7869 7.49757 11.0577C7.86001 11.3059 8.15413 11.294 8.3371 11.2404C8.52014 11.1867 8.77418 11.0376 8.94528 10.6325C9.05567 10.3714 9.1224 10.0773 9.15544 9.70582C9.24984 8.60354 9.23308 7.6871 9.1028 6.8227C9.01098 6.20339 8.6912 5.75599 8.18748 5.52753C8.27694 5.48095 8.37774 5.46153 8.51774 5.46153H11.95C12.1431 5.50484 12.1813 5.55571 12.1944 5.57312C12.25 5.64707 12.2818 5.82199 12.3012 5.95868L12.3042 9.78609C12.2964 10.153 12.4747 10.9667 13.0819 11.1899C13.0869 11.1917 13.0919 11.1935 13.0969 11.1951C13.6497 11.3757 14.0153 10.9855 14.2116 10.7759L14.2466 10.7387C15.1702 9.75833 15.7922 8.61287 16.2781 7.62308C16.5314 7.11196 16.7459 6.58327 16.9273 6.12754C17.018 5.89899 17.1006 5.86135 17.2977 5.86552C17.3004 5.86561 17.303 5.86561 17.3058 5.86561L20.6533 5.86857C20.7311 5.86857 20.8124 5.86947 20.8754 5.88026C21.0349 5.90742 21.1006 5.9405 21.1223 5.95421C21.1245 5.9796 21.124 6.05265 21.0758 6.2051C20.833 6.96948 20.3637 7.61891 19.8669 8.3065L19.8076 8.3887C19.5495 8.74586 19.2769 9.10521 19.0134 9.45278C18.7096 9.85329 18.3956 10.2674 18.0979 10.6853C17.4613 11.5734 17.5173 12.1628 18.3116 12.9376C18.4994 13.1209 18.6918 13.3031 18.8779 13.4794C19.4056 13.9793 19.9041 14.4514 20.349 14.9844C20.5819 15.2652 20.8459 15.6024 21.0383 15.974C21.1386 16.1685 21.114 16.3442 21.0625 16.4356Z"/>
</mask>
<path d="M21.0225 14.4237C20.5439 13.8502 20.0033 13.3382 19.4804 12.8429C19.2967 12.6689 19.1066 12.4889 18.9235 12.3102C18.6773 12.07 18.5566 11.8994 18.5441 11.7735C18.5317 11.6498 18.6162 11.4662 18.8108 11.1948C19.1016 10.7866 19.4116 10.3777 19.7116 9.98229C19.9781 9.6308 20.2537 9.26733 20.5179 8.90179L20.5772 8.81972C21.0926 8.10635 21.6255 7.3687 21.9111 6.46979C21.9927 6.21207 22.0773 5.83067 21.8731 5.49586C21.6687 5.16096 21.2899 5.0617 21.0228 5.01624C20.8924 4.9939 20.7687 4.99205 20.6535 4.99205L17.3103 4.98908C16.7323 4.97946 16.3313 5.25343 16.1127 5.8036C15.9379 6.243 15.7313 6.75223 15.492 7.23528C15.0342 8.16784 14.4524 9.24193 13.6092 10.1368L13.5717 10.1767C13.5143 10.238 13.4205 10.3382 13.3724 10.3612C13.281 10.3038 13.1756 9.97545 13.1804 9.80345C13.1805 9.7992 13.1806 9.79499 13.1806 9.79077L13.1776 5.92774C13.1776 5.9081 13.1763 5.88847 13.1736 5.869C13.0987 5.31788 12.9525 4.76539 12.0802 4.59325C12.0522 4.58771 12.0238 4.58496 11.9953 4.58496H8.51765C7.86336 4.58496 7.51729 4.88458 7.23984 5.20943C7.15953 5.30413 6.94615 5.55559 7.05486 5.86299C7.16486 6.17404 7.49263 6.23613 7.60022 6.25649C7.97921 6.32842 8.17519 6.54262 8.23586 6.95212C8.35579 7.74777 8.37048 8.59895 8.28218 9.62947C8.25756 9.90615 8.21176 10.1164 8.13785 10.2913C8.1174 10.3397 8.09943 10.3697 8.08689 10.3874C8.06686 10.3793 8.03571 10.3639 7.99257 10.3343C7.72625 10.1521 7.52554 9.86881 7.33145 9.59492C6.55621 8.50037 5.90411 7.29149 5.33765 5.89865C5.10437 5.32789 4.66583 5.00911 4.10363 5.00086C3.0325 4.98303 2.04185 4.98345 1.07608 5.00223C0.620569 5.01014 0.301138 5.15353 0.126513 5.42848C-0.0483278 5.70396 -0.0419254 6.05519 0.145591 6.47259C1.48605 9.45334 2.70319 11.6217 4.09194 13.5035C5.06978 14.8283 6.05412 15.7479 7.18965 16.3976C8.38273 17.0802 9.72826 17.4147 11.2892 17.4147C11.4667 17.4147 11.6473 17.4103 11.8303 17.4016C12.7934 17.3577 13.1852 16.9747 13.228 16.0367C13.252 15.541 13.3071 15.1394 13.4986 14.7905C13.5521 14.6928 13.6125 14.6273 13.6601 14.6153C13.7107 14.6027 13.8005 14.6337 13.9003 14.6985C14.0828 14.817 14.2399 14.9777 14.3692 15.1188C14.5001 15.2622 14.6325 15.4103 14.7606 15.5535C15.0331 15.8585 15.3149 16.1738 15.6102 16.4746C16.2781 17.1554 17.048 17.4676 17.8995 17.4022L20.9591 17.4036C20.9688 17.4036 20.9787 17.4033 20.9884 17.4027C21.3413 17.3792 21.6465 17.1838 21.8256 16.8665C22.0414 16.4844 22.0381 16.0005 21.8167 15.5714C21.5857 15.1254 21.286 14.7414 21.0225 14.4237ZM21.0625 16.4356C21.0203 16.5103 20.9682 16.5239 20.9414 16.5272L17.8824 16.5258C17.8703 16.5258 17.858 16.5262 17.846 16.5273C17.2433 16.5775 16.7311 16.3656 16.2358 15.8607C15.9548 15.5745 15.6799 15.2669 15.414 14.9695C15.2845 14.8246 15.1505 14.6747 15.016 14.5274C14.8491 14.3451 14.6428 14.1356 14.3777 13.9635C13.9808 13.7059 13.652 13.7137 13.446 13.7656C13.2422 13.8169 12.9525 13.9634 12.7302 14.3692C12.4421 14.8943 12.3785 15.4607 12.3527 15.9958C12.3377 16.323 12.2824 16.4095 12.2593 16.4314C12.229 16.4602 12.1277 16.5109 11.7899 16.5263C10.1668 16.6026 8.80455 16.3119 7.62493 15.637C6.59875 15.0499 5.70018 14.2065 4.79719 12.9831C3.44689 11.1536 2.2588 9.03486 0.945027 6.11341C0.897418 6.00758 0.882722 5.94153 0.878468 5.90617C0.911984 5.89517 0.977469 5.88069 1.09228 5.87858C2.04825 5.86006 3.02855 5.85955 4.09001 5.87725C4.23533 5.8794 4.4008 5.92301 4.5261 6.2296C5.11795 7.68491 5.80163 8.95142 6.61632 10.1016C6.83263 10.4069 7.10187 10.7869 7.49757 11.0577C7.86001 11.3059 8.15413 11.294 8.3371 11.2404C8.52014 11.1867 8.77418 11.0376 8.94528 10.6325C9.05567 10.3714 9.1224 10.0773 9.15544 9.70582C9.24984 8.60354 9.23308 7.6871 9.1028 6.8227C9.01098 6.20339 8.6912 5.75599 8.18748 5.52753C8.27694 5.48095 8.37774 5.46153 8.51774 5.46153H11.95C12.1431 5.50484 12.1813 5.55571 12.1944 5.57312C12.25 5.64707 12.2818 5.82199 12.3012 5.95868L12.3042 9.78609C12.2964 10.153 12.4747 10.9667 13.0819 11.1899C13.0869 11.1917 13.0919 11.1935 13.0969 11.1951C13.6497 11.3757 14.0153 10.9855 14.2116 10.7759L14.2466 10.7387C15.1702 9.75833 15.7922 8.61287 16.2781 7.62308C16.5314 7.11196 16.7459 6.58327 16.9273 6.12754C17.018 5.89899 17.1006 5.86135 17.2977 5.86552C17.3004 5.86561 17.303 5.86561 17.3058 5.86561L20.6533 5.86857C20.7311 5.86857 20.8124 5.86947 20.8754 5.88026C21.0349 5.90742 21.1006 5.9405 21.1223 5.95421C21.1245 5.9796 21.124 6.05265 21.0758 6.2051C20.833 6.96948 20.3637 7.61891 19.8669 8.3065L19.8076 8.3887C19.5495 8.74586 19.2769 9.10521 19.0134 9.45278C18.7096 9.85329 18.3956 10.2674 18.0979 10.6853C17.4613 11.5734 17.5173 12.1628 18.3116 12.9376C18.4994 13.1209 18.6918 13.3031 18.8779 13.4794C19.4056 13.9793 19.9041 14.4514 20.349 14.9844C20.5819 15.2652 20.8459 15.6024 21.0383 15.974C21.1386 16.1685 21.114 16.3442 21.0625 16.4356Z" fill="#818181"/>
<path d="M21.0225 14.4237L67.2006 -23.8853L67.146 -23.9511L67.0911 -24.0169L21.0225 14.4237ZM19.4804 12.8429L-21.7846 56.3998L-21.7776 56.4064L19.4804 12.8429ZM18.5441 11.7735L-41.1582 17.7438L18.5441 11.7735ZM18.8108 11.1948L67.5779 46.1486L67.6267 46.0804L67.6754 46.0121L18.8108 11.1948ZM19.7116 9.98229L67.5151 46.2427L67.5173 46.2398L19.7116 9.98229ZM20.5179 8.90179L69.1477 44.0464L69.1522 44.0402L20.5179 8.90179ZM20.5772 8.81972L69.2115 43.9581L69.2115 43.9581L20.5772 8.81972ZM21.9111 6.46979L79.0948 24.6363L79.1051 24.6039L79.1154 24.5714L21.9111 6.46979ZM21.8731 5.49586L73.0927 -25.7539L73.0904 -25.7576L21.8731 5.49586ZM21.0228 5.01624L10.8904 64.1545L10.9213 64.1598L10.9521 64.165L21.0228 5.01624ZM20.6535 4.99205L20.6003 64.992L20.6269 64.9921H20.6535V4.99205ZM17.3103 4.98908L16.3113 64.9808L16.7842 64.9886L17.2571 64.9891L17.3103 4.98908ZM16.1127 5.8036L71.8596 27.9911L71.8671 27.9722L71.8747 27.9533L16.1127 5.8036ZM15.492 7.23528L-38.2727 -19.3984L-38.3202 -19.3026L-38.3673 -19.2067L15.492 7.23528ZM13.6092 10.1368L-30.0596 -31.0096L-30.0878 -30.9798L-30.1159 -30.9499L13.6092 10.1368ZM13.5717 10.1767L-30.1533 -30.91L-30.1836 -30.8777L-30.2139 -30.8454L13.5717 10.1767ZM13.3724 10.3612L-18.5521 61.1631L9.41035 78.7349L39.2153 64.5105L13.3724 10.3612ZM13.1804 9.80345L-46.792 7.9861L-46.7942 8.05573L-46.7961 8.12537L13.1804 9.80345ZM13.1806 9.79077H73.1806V9.76774L73.1806 9.74471L13.1806 9.79077ZM13.1776 5.92774H-46.8224V5.95077L-46.8224 5.9738L13.1776 5.92774ZM13.1736 5.869L72.6369 -2.1382L72.6315 -2.17889L72.6259 -2.21958L13.1736 5.869ZM12.0802 4.59325L0.417566 63.4489L0.440697 63.4534L0.463832 63.458L12.0802 4.59325ZM7.23984 5.20943L-38.3841 -33.758L-38.453 -33.6773L-38.5216 -33.5964L7.23984 5.20943ZM7.05486 5.86299L63.6219 -14.1414L63.6217 -14.1418L7.05486 5.86299ZM7.60022 6.25649L18.7883 -52.6912L18.7741 -52.6939L18.7599 -52.6966L7.60022 6.25649ZM8.23586 6.95212L-51.1162 15.7459L-51.1052 15.8203L-51.094 15.8947L8.23586 6.95212ZM8.28218 9.62947L68.046 14.9478L68.0547 14.8498L68.0631 14.7518L8.28218 9.62947ZM8.13785 10.2913L-47.1296 -13.0649L-47.1344 -13.0535L8.13785 10.2913ZM8.08689 10.3874L-14.3612 66.0299L29.5656 83.7514L56.9992 45.1377L8.08689 10.3874ZM7.99257 10.3343L41.8754 -39.1829L41.875 -39.1831L7.99257 10.3343ZM7.33145 9.59492L-41.6313 44.2742L-41.6269 44.2804L-41.6225 44.2866L7.33145 9.59492ZM5.33765 5.89865L60.917 -16.7052L60.8974 -16.7534L60.8777 -16.8016L5.33765 5.89865ZM4.10363 5.00086L3.10489 64.9925L3.16407 64.9935L3.22326 64.9944L4.10363 5.00086ZM1.07608 5.00223L2.11734 64.9932L2.17989 64.9921L2.24244 64.9909L1.07608 5.00223ZM0.126513 5.42848L-50.5222 -26.7384L-50.5269 -26.7311L-50.5315 -26.7237L0.126513 5.42848ZM0.145591 6.47259L-54.5851 31.0602L-54.5804 31.0706L-54.5758 31.081L0.145591 6.47259ZM4.09194 13.5035L-44.1847 49.1317L-44.1825 49.1347L4.09194 13.5035ZM7.18965 16.3976L-22.6067 68.4762L-22.6051 68.4771L7.18965 16.3976ZM11.2892 17.4147V-42.5853L11.2876 -42.5853L11.2892 17.4147ZM11.8303 17.4016L9.09993 -42.5362L9.03684 -42.5334L8.97375 -42.5304L11.8303 17.4016ZM13.228 16.0367L-46.702 13.1381L-46.706 13.2214L-46.7098 13.3046L13.228 16.0367ZM13.4986 14.7905L66.1016 43.6509L66.1068 43.6413L66.112 43.6318L13.4986 14.7905ZM13.6601 14.6153L-0.868762 -43.599L-0.92982 -43.5838L-0.990845 -43.5684L13.6601 14.6153ZM13.9003 14.6985L-18.7845 65.0145L-18.7777 65.0189L13.9003 14.6985ZM14.3692 15.1188L58.6705 -25.3459L58.6426 -25.3764L58.6146 -25.407L14.3692 15.1188ZM14.7606 15.5535L59.4968 -24.4298L59.4898 -24.4377L59.4828 -24.4455L14.7606 15.5535ZM15.6102 16.4746L58.4415 -25.543L58.4339 -25.5508L58.4263 -25.5585L15.6102 16.4746ZM17.8995 17.4022L17.9274 -42.5978L15.6127 -42.5989L13.3049 -42.4216L17.8995 17.4022ZM20.9884 17.4027L24.962 77.271L24.9757 77.27L20.9884 17.4027ZM21.8256 16.8665L74.0702 46.3708L74.0718 46.3681L21.8256 16.8665ZM21.8167 15.5714L75.1374 -11.9406L75.1168 -11.9805L75.0961 -12.0203L21.8167 15.5714ZM21.0625 16.4356L73.308 45.9382L73.3136 45.9282L21.0625 16.4356ZM20.9414 16.5272L20.9136 76.5272L24.5621 76.5289L28.184 76.0884L20.9414 16.5272ZM17.846 16.5273L22.8255 76.3203L22.9069 76.3135L22.9883 76.3065L17.846 16.5273ZM16.2358 15.8607L59.0649 -26.1591L59.0556 -26.1685L16.2358 15.8607ZM15.414 14.9695L60.149 -25.0153L60.1479 -25.0165L15.414 14.9695ZM15.016 14.5274L59.3117 -25.9435L59.2901 -25.967L59.2686 -25.9906L15.016 14.5274ZM14.3777 13.9635L47.0549 -36.3575L47.0448 -36.364L14.3777 13.9635ZM13.446 13.7656L28.1049 71.9473L28.1095 71.9462L13.446 13.7656ZM12.7302 14.3692L65.333 43.23L65.3406 43.2161L65.3482 43.2022L12.7302 14.3692ZM12.3527 15.9958L-47.5773 13.0987L-47.5812 13.1779L-47.5848 13.257L12.3527 15.9958ZM12.2593 16.4314L-29.0615 -27.0725L-29.0677 -27.0667L-29.0738 -27.0608L12.2593 16.4314ZM11.7899 16.5263L9.05269 -43.4112L9.01245 -43.4094L8.97222 -43.4075L11.7899 16.5263ZM7.62493 15.637L-22.1716 67.7155L-22.1714 67.7156L7.62493 15.637ZM4.79719 12.9831L-43.4785 48.6125L-43.4767 48.615L4.79719 12.9831ZM0.945027 6.11341L55.6665 -18.4947L55.6632 -18.502L0.945027 6.11341ZM0.878468 5.90617L-17.8319 -51.1019L-64.5666 -35.7634L-58.6921 13.072L0.878468 5.90617ZM1.09228 5.87858L2.1924 65.8685L2.22341 65.8679L2.25442 65.8673L1.09228 5.87858ZM4.09001 5.87725L3.08946 65.8689L3.14625 65.8699L3.20305 65.8707L4.09001 5.87725ZM4.5261 6.2296L60.1057 -16.3737L60.0862 -16.4215L60.0667 -16.4693L4.5261 6.2296ZM6.61632 10.1016L-42.3457 44.7818L-42.341 44.7886L6.61632 10.1016ZM7.49757 11.0577L41.3973 -38.4479L41.3882 -38.4542L41.379 -38.4605L7.49757 11.0577ZM8.3371 11.2404L25.2129 68.8182L25.2181 68.8167L8.3371 11.2404ZM8.94528 10.6325L-46.3194 -12.7302L-46.3232 -12.7212L-46.327 -12.7122L8.94528 10.6325ZM9.15544 9.70582L68.9195 15.0214L68.9282 14.9235L68.9366 14.8257L9.15544 9.70582ZM9.1028 6.8227L-50.2484 15.6226L-50.2378 15.6937L-50.2271 15.7648L9.1028 6.8227ZM8.18748 5.52753L-19.5211 -47.6912L-128.876 9.24483L-16.5957 60.1699L8.18748 5.52753ZM11.95 5.46153L25.0816 -53.0838L18.5964 -54.5385H11.95V5.46153ZM12.1944 5.57312L60.1509 -30.4848L60.1371 -30.5031L60.1233 -30.5215L12.1944 5.57312ZM12.3012 5.95868L72.3012 5.91288L72.298 1.69439L71.7045 -2.48215L12.3012 5.95868ZM12.3042 9.78609L72.2908 11.0506L72.3046 10.3955L72.3041 9.74029L12.3042 9.78609ZM13.0819 11.1899L33.9366 -45.0692L33.858 -45.0983L33.7793 -45.1272L13.0819 11.1899ZM13.0969 11.1951L31.7351 -45.8366L31.6831 -45.8536L31.6311 -45.8705L13.0969 11.1951ZM14.2116 10.7759L-29.5071 -30.3176L-29.5475 -30.2746L-29.5878 -30.2316L14.2116 10.7759ZM14.2466 10.7387L-29.4234 -30.4066L-29.4478 -30.3807L-29.4721 -30.3548L14.2466 10.7387ZM16.2781 7.62308L-37.4839 -19.0161L-37.5327 -18.9177L-37.5811 -18.819L16.2781 7.62308ZM16.9273 6.12754L72.6746 28.314L72.6833 28.2919L72.6921 28.2699L16.9273 6.12754ZM17.2977 5.86552L19.2015 -54.1043L18.884 -54.1143L18.5665 -54.1211L17.2977 5.86552ZM17.3058 5.86561L17.3589 -54.1344L17.3323 -54.1344H17.3058V5.86561ZM20.6533 5.86857L20.6001 65.8685L20.6267 65.8686H20.6533V5.86857ZM20.8754 5.88026L10.7566 65.0209L10.7807 65.025L10.8048 65.0291L20.8754 5.88026ZM21.1223 5.95421L80.8914 0.69534L78.29 -28.8707L53.2111 -44.744L21.1223 5.95421ZM21.0758 6.2051L78.2598 24.3706L78.2716 24.3334L78.2834 24.2961L21.0758 6.2051ZM19.8669 8.3065L-28.7681 -26.8309L-28.7744 -26.8221L-28.7808 -26.8133L19.8669 8.3065ZM19.8076 8.3887L68.4376 43.5331L68.4464 43.5208L68.4553 43.5085L19.8076 8.3887ZM19.0134 9.45278L66.8176 45.7124L66.8248 45.7029L19.0134 9.45278ZM18.0979 10.6853L66.8655 45.6383L66.9154 45.5688L66.965 45.4992L18.0979 10.6853ZM18.3116 12.9376L60.224 -29.9967L60.2151 -30.0054L60.2062 -30.0141L18.3116 12.9376ZM18.8779 13.4794L60.1396 -30.0806L60.132 -30.0878L18.8779 13.4794ZM20.349 14.9844L66.529 -23.3223L66.4723 -23.3906L66.4155 -23.4588L20.349 14.9844ZM21.0383 15.974L74.358 -11.5398L74.3385 -11.5775L74.319 -11.6152L21.0383 15.974ZM67.0911 -24.0169C63.9899 -27.7335 60.8599 -30.6055 60.7384 -30.7205L-21.7776 56.4064C-21.4159 56.749 -21.7931 56.3977 -22.2613 55.9272C-22.7947 55.3911 -23.8226 54.3307 -25.0462 52.8643L67.0911 -24.0169ZM60.7454 -30.7139C60.7202 -30.7378 60.7021 -30.7549 60.6839 -30.7722C60.6665 -30.7887 60.6535 -30.801 60.6429 -30.811C60.6213 -30.8316 60.6169 -30.8358 60.6226 -30.8303C60.6288 -30.8244 60.6514 -30.8028 60.6861 -30.7694C60.7208 -30.736 60.7727 -30.6859 60.8379 -30.6221L-22.9909 55.2425C-22.4271 55.7929 -21.8991 56.2913 -21.7846 56.3998L60.7454 -30.7139ZM60.8182 -30.6414C61.9215 -29.5652 64.7083 -26.7821 67.635 -22.6434C69.9597 -19.3559 76.7393 -9.26623 78.2463 5.80331L-41.1582 17.7438C-39.6386 32.9392 -32.7924 43.1771 -30.3427 46.6414C-27.291 50.9569 -24.3207 53.9454 -22.9712 55.2617L60.8182 -30.6414ZM78.2463 5.80331C79.7889 21.2292 74.9108 32.7041 73.0933 36.6486C70.8762 41.4602 68.5166 44.8388 67.5779 46.1486L-29.9563 -23.7591C-31.0896 -22.1779 -33.5887 -18.5718 -35.8936 -13.5695C-37.7989 -9.43451 -42.7131 2.19414 -41.1582 17.7438L78.2463 5.80331ZM67.6754 46.0121C67.5733 46.1554 67.4914 46.2681 67.4358 46.344C67.3802 46.4198 67.3433 46.4694 67.332 46.4845C67.3213 46.4989 67.3267 46.4915 67.359 46.4487C67.3946 46.4016 67.4364 46.3465 67.5151 46.2427L-28.092 -26.2782C-28.3045 -25.998 -29.1575 -24.8805 -30.0539 -23.6225L67.6754 46.0121ZM67.5173 46.2398C67.7184 45.9747 68.4117 45.0648 69.1477 44.0464L-28.1118 -26.2429C-28.0427 -26.3385 -27.9889 -26.4118 -27.9547 -26.4581C-27.9373 -26.4817 -27.9239 -26.4998 -27.915 -26.5117C-27.9061 -26.5237 -27.9011 -26.5304 -27.9006 -26.531C-27.9002 -26.5316 -27.9035 -26.5272 -27.9114 -26.5167C-27.9194 -26.5061 -27.9309 -26.4908 -27.9472 -26.4692C-27.9636 -26.4475 -27.9833 -26.4216 -28.0081 -26.3888C-28.0204 -26.3726 -28.0335 -26.3553 -28.048 -26.3362C-28.0625 -26.317 -28.0775 -26.2973 -28.0942 -26.2753L67.5173 46.2398ZM69.1522 44.0402L69.2115 43.9581L-28.057 -26.3187L-28.1163 -26.2366L69.1522 44.0402ZM69.2115 43.9581C69.2435 43.9139 70.963 41.5899 72.6752 38.758C74.5637 35.6345 77.1209 30.8496 79.0948 24.6363L-35.2726 -11.6967C-33.5843 -17.0111 -31.4363 -20.9778 -30.0145 -23.3293C-28.7689 -25.3894 -27.5736 -26.9878 -28.0571 -26.3187L69.2115 43.9581ZM79.1154 24.5714C79.6359 22.9266 88.1981 -0.99563 73.0927 -25.7539L-29.3466 36.7456C-36.8144 24.5055 -38.2541 12.3374 -37.9652 3.94717C-37.6956 -3.88355 -35.8881 -9.75198 -35.2932 -11.6319L79.1154 24.5714ZM73.0904 -25.7576C57.9685 -50.5391 32.7351 -53.8531 31.0936 -54.1326L10.9521 64.165C9.01941 63.836 2.98366 62.7618 -4.09395 59.4284C-11.6733 55.8586 -21.859 49.016 -29.3443 36.7493L73.0904 -25.7576ZM31.1553 -54.122C25.6183 -55.0707 21.1033 -55.0079 20.6535 -55.0079V64.9921C20.434 64.9921 16.1666 65.0585 10.8904 64.1545L31.1553 -54.122ZM20.7067 -55.0079L17.3635 -55.0109L17.2571 64.9891L20.6003 64.992L20.7067 -55.0079ZM18.3093 -55.0026C8.04831 -55.1735 -4.9262 -52.7608 -17.1934 -44.4077C-29.3315 -36.1426 -36.1185 -25.2344 -39.6492 -16.3461L71.8747 27.9533C68.5626 36.2914 62.0853 46.7875 50.3469 54.7805C38.4793 62.8616 25.9943 65.142 16.3113 64.9808L18.3093 -55.0026ZM-39.6341 -16.3839C-39.6808 -16.2668 -39.5591 -16.5765 -39.3688 -17.023C-39.176 -17.4752 -38.8056 -18.3227 -38.2727 -19.3984L69.2568 33.869C70.6828 30.9903 71.67 28.4675 71.8596 27.9911L-39.6341 -16.3839ZM-38.3673 -19.2067C-38.227 -19.4925 -37.4941 -20.9884 -36.301 -22.913C-35.0926 -24.8623 -33.0784 -27.8058 -30.0596 -31.0096L57.2781 51.2833C64.587 43.5263 68.3799 35.6559 69.3513 33.6773L-38.3673 -19.2067ZM-30.1159 -30.9499L-30.1533 -30.91L57.2968 51.2634L57.3343 51.2235L-30.1159 -30.9499ZM-30.2139 -30.8454C-30.4131 -30.6328 -29.4829 -31.6423 -28.3288 -32.7629C-27.742 -33.3327 -26.4804 -34.5376 -24.7691 -35.9496C-23.8909 -36.6742 -22.5459 -37.7425 -20.8286 -38.935C-19.2651 -40.0206 -16.374 -41.9251 -12.4705 -43.7881L39.2153 64.5105C43.1308 62.6418 46.0353 60.729 47.6134 59.6333C49.3453 58.4307 50.7059 57.3503 51.6006 56.6121C53.3449 55.173 54.6426 53.9349 55.266 53.3296C55.9771 52.6391 56.5296 52.0687 56.8251 51.7605C56.9878 51.5909 57.121 51.4502 57.2086 51.3573C57.2531 51.31 57.29 51.2708 57.3147 51.2444C57.3272 51.2311 57.3376 51.22 57.3446 51.2125C57.351 51.2057 57.357 51.1993 57.3574 51.1989L-30.2139 -30.8454ZM45.2968 -40.4407C53.3255 -35.3954 58.2535 -29.6268 60.5464 -26.7038C63.1517 -23.3825 64.9126 -20.4089 65.98 -18.4514C68.1025 -14.5591 69.3819 -11.1714 70.1228 -8.96348C70.9247 -6.5741 71.6157 -4.00474 72.1376 -1.26262C72.5826 1.07572 73.32 5.6525 73.157 11.4815L-46.7961 8.12537C-47.0767 18.1546 -44.7678 25.8597 -43.6422 29.2141C-42.8641 31.5327 -41.5415 35.0241 -39.3737 38.9994C-38.5718 40.4699 -32.4423 52.4343 -18.5521 61.1631L45.2968 -40.4407ZM73.1529 11.6208C73.1767 10.8363 73.1806 10.1965 73.1806 9.79077H-46.8194C-46.8194 9.39351 -46.8156 8.76214 -46.792 7.9861L73.1529 11.6208ZM73.1806 9.74471L73.1776 5.88168L-46.8224 5.9738L-46.8194 9.83684L73.1806 9.74471ZM73.1776 5.92774C73.1776 3.11287 72.981 0.416648 72.6369 -2.1382L-46.2897 13.8762C-46.6285 11.3603 -46.8224 8.70333 -46.8224 5.92774H73.1776ZM72.6259 -2.21958C72.4679 -3.38074 71.1703 -15.9235 62.5869 -28.5828C52.0088 -44.1839 36.6901 -51.7074 23.6966 -54.2715L0.463832 63.458C-11.6574 61.066 -26.4669 53.9048 -36.7351 38.7608C-45.0086 26.5586 -46.1957 14.5676 -46.2787 13.9576L72.6259 -2.21958ZM23.7428 -54.2624C19.8222 -55.0393 15.8862 -55.415 11.9953 -55.415V64.585C8.16132 64.585 4.28223 64.2147 0.417566 63.4489L23.7428 -54.2624ZM11.9953 -55.415H8.51765V64.585H11.9953V-55.415ZM8.51765 -55.415C-1.6585 -55.415 -12.2198 -52.9024 -21.9379 -47.3723C-30.8892 -42.2784 -36.3374 -36.1543 -38.3841 -33.758L52.8638 44.1768C51.0945 46.2483 45.9581 52.0602 37.4127 56.923C28.1007 62.2222 18.0395 64.585 8.51765 64.585V-55.415ZM-38.5216 -33.5964C-38.6408 -33.4558 -43.941 -27.5713 -47.8389 -18.716C-52.2047 -8.79753 -55.9989 7.52498 -49.512 25.8678L63.6217 -14.1418C69.9999 3.89359 66.2581 19.9367 61.9918 29.6289C59.9554 34.2552 57.701 37.7668 56.0868 40.0408C55.252 41.2167 54.5069 42.1744 53.9507 42.8656C53.422 43.5227 52.9746 44.0467 53.0013 44.0153L-38.5216 -33.5964ZM-49.5121 25.8673C-43.0547 44.1272 -29.939 54.3997 -20.4282 59.3625C-11.817 63.8558 -4.03808 65.1189 -3.55943 65.2095L18.7599 -52.6966C18.7494 -52.6985 19.4705 -52.5645 20.3565 -52.371C21.2773 -52.1698 22.4956 -51.8806 23.9143 -51.4767C26.6601 -50.695 30.619 -49.3554 35.085 -47.025C44.3776 -42.1761 57.2744 -32.0902 63.6219 -14.1414L-49.5121 25.8673ZM-3.58781 65.2042C-12.4282 63.5263 -25.362 58.8695 -36.2496 46.9581C-46.7572 35.4624 -50.0434 22.9864 -51.1162 15.7459L67.5879 -1.8417C66.4545 -9.49165 63.0399 -22.2795 52.3244 -34.0026C41.229 -46.1415 28.0076 -50.9414 18.7883 -52.6912L-3.58781 65.2042ZM-51.094 15.8947C-51.8418 10.933 -51.7044 6.90668 -51.4988 4.5071L68.0631 14.7518C68.4453 10.2912 68.5534 4.56258 67.5657 -1.99045L-51.094 15.8947ZM-51.4817 4.31115C-51.1865 0.994945 -50.3285 -5.49534 -47.1296 -13.0649L63.4053 33.6476C66.752 25.7282 67.7017 18.8173 68.046 14.9478L-51.4817 4.31115ZM-47.1344 -13.0535C-45.728 -16.3833 -43.7164 -20.2937 -40.8254 -24.3629L56.9992 45.1377C59.9153 41.0332 61.9628 37.0627 63.4101 33.6361L-47.1344 -13.0535ZM30.5349 -45.2551C35.1237 -43.4038 38.9027 -41.217 41.8754 -39.1829L-25.8902 59.8516C-22.8313 61.9447 -18.9899 64.1625 -14.3612 66.0299L30.5349 -45.2551ZM41.875 -39.1831C47.7576 -35.158 51.5889 -30.9521 53.5162 -28.665C55.305 -26.5424 56.6446 -24.5898 56.2854 -25.0968L-41.6225 44.2866C-41.6134 44.2994 -41.4996 44.4602 -41.3699 44.6413C-41.2304 44.836 -41.0141 45.1359 -40.7479 45.4955C-40.2316 46.1931 -39.372 47.3273 -38.2464 48.663C-36.1036 51.2057 -32.0388 55.6444 -25.8899 59.8518L41.875 -39.1831ZM56.2942 -25.0843C58.4784 -22.0006 59.9541 -19.0728 60.917 -16.7052L-50.2417 28.5025C-48.1459 33.6558 -45.3659 39.0013 -41.6313 44.2742L56.2942 -25.0843ZM60.8777 -16.8016C52.6632 -36.8999 32.4162 -54.5901 4.984 -54.9927L3.22326 64.9944C-8.06148 64.8288 -20.0071 61.3562 -30.4495 53.7607C-40.6487 46.342 -46.8026 36.9171 -50.2024 28.5989L60.8777 -16.8016ZM5.10237 -54.9908C3.38741 -55.0194 1.67096 -55.0207 -0.0902755 -54.9864L2.24244 64.9909C2.41274 64.9876 2.67759 64.9854 3.10489 64.9925L5.10237 -54.9908ZM0.0348274 -54.9887C-11.8147 -54.7831 -35.5569 -50.3021 -50.5222 -26.7384L50.7752 37.5954C36.1592 60.6092 13.0559 64.8033 2.11734 64.9932L0.0348274 -54.9887ZM-50.5315 -26.7237C-65.5197 -3.10874 -59.4143 20.3107 -54.5851 31.0602L54.8763 -18.1151C59.3304 -8.20034 65.423 14.5167 50.7846 37.5806L-50.5315 -26.7237ZM-54.5758 31.081C-52.1183 36.5457 -48.884 42.7641 -44.1847 49.1317L52.3686 -22.1247C54.2903 -19.5207 55.0903 -17.639 54.8669 -18.1358L-54.5758 31.081ZM-44.1825 49.1347C-39.4921 55.4894 -32.5901 62.7643 -22.6067 68.4762L36.986 -35.6809C44.6983 -31.2684 49.6316 -25.8328 52.3664 -22.1277L-44.1825 49.1347ZM-22.6051 68.4771C-11.1895 75.008 0.687097 77.415 11.2909 77.4147L11.2876 -42.5853C18.7694 -42.5855 27.955 -40.8476 36.9845 -35.6818L-22.6051 68.4771ZM11.2892 77.4147C12.4426 77.4147 13.576 77.3865 14.6869 77.3336L8.97375 -42.5304C9.71871 -42.5659 10.4908 -42.5853 11.2892 -42.5853V77.4147ZM14.5607 77.3394C20.9047 77.0505 39.0771 75.3339 54.8 59.9757C70.8468 44.3011 72.8483 25.7332 73.1658 18.7687L-46.7098 13.3046C-46.4351 7.2782 -44.6508 -10.6292 -29.0515 -25.8668C-13.7759 -40.7881 3.71901 -42.2911 9.09993 -42.5362L14.5607 77.3394ZM73.1579 18.9353C73.1133 19.8584 72.8973 31.2646 66.1016 43.6509L-39.1045 -14.0699C-46.283 -0.985833 -46.6094 11.2235 -46.702 13.1381L73.1579 18.9353ZM66.112 43.6318C64.4583 46.6486 61.7854 50.9062 57.6824 55.3539C55.6009 57.6102 52.509 60.6152 48.3139 63.5881C44.3132 66.4232 37.5718 70.4672 28.3111 72.7991L-0.990845 -43.5684C-17.9425 -39.2999 -27.7387 -29.0265 -30.5192 -26.0124C-34.6777 -21.5046 -37.4076 -17.1653 -39.1149 -14.0509L66.112 43.6318ZM28.189 72.8297C18.9322 75.14 11.092 74.7554 6.24797 74.1487C1.16328 73.5118 -2.96735 72.3296 -5.85719 71.3297C-11.5551 69.3582 -15.909 66.8824 -18.7845 65.0145L46.5852 -35.6175C43.6099 -37.5502 39.1611 -40.0739 33.3807 -42.074C29.53 -43.4063 16.0646 -47.8252 -0.868762 -43.599L28.189 72.8297ZM-18.7777 65.0189C-22.3725 62.6845 -25.0213 60.4002 -26.6619 58.8775C-28.3104 57.3475 -29.4882 56.0683 -29.8763 55.6446L58.6146 -25.407C57.9823 -26.0973 53.5435 -31.0988 46.5784 -35.6219L-18.7777 65.0189ZM-29.9322 55.5834C-29.9743 55.5373 -30.0069 55.5014 -30.0277 55.4784C-30.0485 55.4555 -30.0609 55.4416 -30.0622 55.4402C-30.0631 55.4392 -30.0573 55.4456 -30.0397 55.4653C-30.031 55.475 -30.0209 55.4864 -30.0076 55.5012C-30.001 55.5085 -29.9941 55.5162 -29.9864 55.5249C-29.9791 55.533 -29.9701 55.5431 -29.9616 55.5526L59.4828 -24.4455C59.4112 -24.5256 59.0552 -24.9247 58.6705 -25.3459L-29.9322 55.5834ZM-29.9757 55.5369C-29.8549 55.672 -28.6477 57.039 -27.2058 58.5077L58.4263 -25.5585C58.9211 -25.0545 59.2805 -24.6652 59.4399 -24.491C59.5757 -24.3426 59.6704 -24.2356 59.4968 -24.4298L-29.9757 55.5369ZM-27.2211 58.4922C-15.7917 70.143 1.76713 78.8179 22.4942 77.226L13.3049 -42.4216C21.8312 -43.0765 30.7376 -41.8272 39.2221 -38.3887C47.5395 -35.0178 53.8852 -30.1876 58.4415 -25.543L-27.2211 58.4922ZM17.8717 77.4022L20.9313 77.4036L20.987 -42.5964L17.9274 -42.5978L17.8717 77.4022ZM20.9591 77.4036C22.1854 77.4036 23.5251 77.3663 24.962 77.271L17.0149 -42.4656C18.4323 -42.5597 19.7522 -42.5964 20.9591 -42.5964V77.4036ZM24.9757 77.27C46.2222 75.855 64.3085 63.6563 74.0702 46.3708L-30.4189 -12.6378C-21.0156 -29.2887 -3.53957 -41.0966 17.0012 -42.4647L24.9757 77.27ZM74.0718 46.3681C85.3513 26.3924 83.5355 4.33575 75.1374 -11.9406L-31.5039 43.0835C-39.4593 27.6652 -41.2686 6.57646 -30.4205 -12.635L74.0718 46.3681ZM75.0961 -12.0203C71.8029 -18.3795 68.115 -22.783 67.2006 -23.8853L-25.1557 52.7327C-25.5429 52.2659 -28.6315 48.6302 -31.4627 43.1632L75.0961 -12.0203ZM-31.1831 -13.0671C-26.5756 -21.2263 -19.623 -29.0164 -10.1689 -34.7631C-0.861991 -40.4202 7.97362 -42.3379 13.6987 -43.0341L28.184 76.0884C43.176 74.2654 62.0898 65.8042 73.308 45.9382L-31.1831 -13.0671ZM20.9692 -43.4728L17.9102 -43.4742L17.8546 76.5258L20.9136 76.5272L20.9692 -43.4728ZM17.8824 -43.4742C16.3571 -43.4742 14.617 -43.4165 12.7037 -43.252L22.9883 76.3065C21.099 76.469 19.3836 76.5258 17.8824 76.5258V-43.4742ZM12.8664 -43.2657C21.3821 -43.9749 30.7504 -42.8427 39.9444 -39.0378C48.7733 -35.3839 55.0373 -30.2642 59.0649 -26.1591L-26.5933 57.8806C-15.9425 68.7365 1.35024 78.1087 22.8255 76.3203L12.8664 -43.2657ZM59.0556 -26.1685C59.5658 -25.6488 59.9339 -25.2494 60.0888 -25.0801C60.224 -24.9323 60.3177 -24.8265 60.149 -25.0153L-29.3209 54.9543C-29.2196 55.0676 -28.0131 56.4341 -26.5841 57.89L59.0556 -26.1685ZM60.1479 -25.0165C60.0652 -25.109 59.7069 -25.511 59.3117 -25.9435L-29.2797 54.9982C-29.3215 54.9525 -29.3542 54.9165 -29.3758 54.8926C-29.3973 54.8688 -29.4107 54.8539 -29.4132 54.8511C-29.4154 54.8487 -29.4108 54.8538 -29.3944 54.8721C-29.3864 54.881 -29.3768 54.8918 -29.3642 54.9059C-29.3508 54.9209 -29.338 54.9352 -29.3199 54.9555L60.1479 -25.0165ZM59.2686 -25.9906C58.1033 -27.2633 53.7989 -31.9781 47.0549 -36.3575L-18.2995 64.2844C-24.5133 60.2493 -28.4051 55.9535 -29.2367 55.0453L59.2686 -25.9906ZM47.0448 -36.364C31.5905 -46.3953 13.9044 -48.2262 -1.21749 -44.415L28.1095 71.9462C21.4732 73.6187 13.5419 74.3821 4.89153 73.0774C-3.8594 71.7575 -11.7065 68.5639 -18.2894 64.291L47.0448 -36.364ZM-1.2129 -44.4162C-16.1168 -40.6611 -30.9381 -30.7965 -39.8879 -14.4637L65.3482 43.2022C61.5243 50.1805 56.069 56.7318 48.9732 62.0256C41.9726 67.2484 34.6582 70.2962 28.1049 71.9473L-1.2129 -44.4162ZM-39.8727 -14.4915C-47.0623 -1.38733 -47.4653 10.7818 -47.5773 13.0987L72.2827 18.8929C72.2224 20.1396 71.9465 31.1759 65.333 43.23L-39.8727 -14.4915ZM-47.5848 13.257C-47.469 10.7222 -47.0884 5.83265 -45.3946 -0.11231C-43.8607 -5.49615 -39.8313 -16.8432 -29.0615 -27.0725L53.58 59.9354C64.3729 49.6841 68.4416 38.2829 70.0127 32.7685C71.7437 26.693 72.1594 21.5966 72.2901 18.7345L-47.5848 13.257ZM-29.0738 -27.0608C-18.4015 -37.2033 -7.05147 -40.5426 -2.68207 -41.6565C2.6196 -43.0081 6.92198 -43.3139 9.05269 -43.4112L14.5272 76.4638C16.9957 76.3511 21.5176 76.0122 26.9619 74.6243C31.4739 73.474 42.8897 70.095 53.5923 59.9237L-29.0738 -27.0608ZM8.97222 -43.4075C16.4834 -43.7607 26.8996 -42.4614 37.4213 -36.4416L-22.1714 67.7156C-9.29054 75.0853 3.85007 76.9658 14.6077 76.4601L8.97222 -43.4075ZM37.4215 -36.4415C45.3843 -31.8856 50.3848 -26.288 53.0711 -22.6487L-43.4767 48.615C-38.9845 54.7011 -32.1868 61.9853 -22.1716 67.7155L37.4215 -36.4415ZM53.0729 -22.6462C55.0505 -19.9668 55.8793 -18.0215 55.6665 -18.4947L-53.7764 30.7216C-51.3617 36.0912 -48.1567 42.2739 -43.4785 48.6125L53.0729 -22.6462ZM55.6632 -18.502C57.4821 -14.4587 59.5663 -8.59799 60.449 -1.25967L-58.6921 13.072C-57.8008 20.4811 -55.6873 26.4738 -53.7732 30.7288L55.6632 -18.502ZM19.5888 62.9143C12.6168 65.2025 6.49875 65.7895 2.1924 65.8685L-0.00783325 -54.1113C-4.54381 -54.0281 -10.7928 -53.4122 -17.8319 -51.1019L19.5888 62.9143ZM2.25442 65.8673C2.42072 65.8641 2.67655 65.862 3.08946 65.8689L5.09056 -54.1144C3.38054 -54.1429 1.67578 -54.144 -0.0698525 -54.1102L2.25442 65.8673ZM3.20305 65.8707C-2.55321 65.7856 -15.4161 64.7826 -28.6726 56.0569C-41.6348 47.525 -48.0313 36.228 -51.0145 28.9285L60.0667 -16.4693C56.9582 -24.0753 50.4163 -35.5475 37.3037 -44.1784C23.8968 -53.003 10.8785 -54.0289 4.97696 -54.1162L3.20305 65.8707ZM-51.0535 28.8329C-48.922 34.0741 -46.1064 39.4724 -42.3457 44.7818L55.5784 -24.5786C57.7097 -21.5696 59.1579 -18.7042 60.1057 -16.3737L-51.0535 28.8329ZM-42.341 44.7886C-42.34 44.7899 -41.8615 45.4702 -41.2798 46.249C-40.6548 47.0856 -39.704 48.3185 -38.4767 49.7437C-36.0597 52.5505 -32.0962 56.6673 -26.3839 60.5758L41.379 -38.4605C46.6956 -34.8227 50.3267 -31.0313 52.4561 -28.5585C54.4302 -26.2659 55.8507 -24.1942 55.5736 -24.5853L-42.341 44.7886ZM-26.4022 60.5633C-10.5979 71.3855 8.44334 73.7333 25.2129 68.8182L-8.53871 -46.3375C-1.30938 -48.4563 7.41213 -49.5016 16.9259 -48.0678C26.5044 -46.6243 34.7736 -42.9837 41.3973 -38.4479L-26.4022 60.5633ZM25.2181 68.8167C42.0302 63.8875 56.7747 51.5993 64.2175 33.9772L-46.327 -12.7122C-43.207 -20.0992 -38.2199 -27.6289 -30.94 -34.0203C-23.7081 -40.3695 -15.7957 -44.2098 -8.54386 -46.336L25.2181 68.8167ZM64.21 33.9952C67.3745 26.5094 68.4969 19.7734 68.9195 15.0214L-50.6086 4.39024C-50.2521 0.381316 -49.2632 -5.76669 -46.3194 -12.7302L64.21 33.9952ZM68.9366 14.8257C69.332 10.2085 69.4205 4.43459 68.4327 -2.1194L-50.2271 15.7648C-50.9544 10.9396 -50.8323 6.99863 -50.6257 4.58599L68.9366 14.8257ZM68.454 -1.97723C65.7778 -20.0267 54.4158 -39.3884 32.9707 -49.1149L-16.5957 60.1699C-25.7393 56.0228 -33.9804 49.4308 -40.1515 40.7242C-46.1994 32.1914 -49.1143 23.2715 -50.2484 15.6226L68.454 -1.97723ZM35.896 58.7463C24.4814 64.6893 14.039 65.4615 8.51774 65.4615V-54.5385C2.71645 -54.5385 -7.92754 -53.7274 -19.5211 -47.6912L35.896 58.7463ZM8.51774 65.4615H11.95V-54.5385H8.51774V65.4615ZM-1.18171 64.0069C-4.75951 63.2044 -10.9078 61.4843 -17.7571 57.548C-21.3847 55.4632 -25.1551 52.7883 -28.7921 49.3889C-30.594 47.7048 -32.1478 46.0438 -33.4775 44.4837C-34.1251 43.7238 -34.6622 43.055 -35.0736 42.5288C-35.453 42.0437 -35.7588 41.6354 -35.7345 41.6677L60.1233 -30.5215C60.146 -30.4914 59.8383 -30.9021 59.4569 -31.3899C59.0434 -31.9187 58.504 -32.5904 57.8536 -33.3535C56.5186 -34.9199 54.9581 -36.5881 53.1478 -38.28C49.4939 -41.6952 45.6995 -44.3888 42.0365 -46.4939C35.1165 -50.4709 28.8525 -52.238 25.0816 -53.0838L-1.18171 64.0069ZM-35.7621 41.631C-40.44 35.4094 -42.7985 29.7129 -43.7852 27.1418C-44.9433 24.1239 -45.6205 21.6162 -45.9837 20.1474C-46.695 17.2714 -47.0168 14.9999 -47.1021 14.3995L71.7045 -2.48215C71.5998 -3.21928 71.2525 -5.64655 70.5065 -8.66265C70.3482 -9.30263 68.0962 -19.9178 60.1509 -30.4848L-35.7621 41.631ZM-47.6987 6.00448L-47.6958 9.83189L72.3041 9.74029L72.3012 5.91288L-47.6987 6.00448ZM-47.6825 8.52159C-47.8604 16.9614 -46.2886 25.822 -42.635 34.2963C-39.0284 42.6617 -29.3167 59.5315 -7.61555 67.507L33.7793 -45.1272C54.8734 -37.3748 64.1923 -21.0235 67.5599 -13.2125C70.9744 -5.29257 72.461 2.9777 72.2908 11.0506L-47.6825 8.52159ZM-7.77277 67.449C-6.82474 67.8004 -6.02058 68.0712 -5.43721 68.2607L31.6311 -45.8705C32.2044 -45.6843 32.9985 -45.4169 33.9366 -45.0692L-7.77277 67.449ZM-5.54124 68.2268C13.0773 74.3114 30.4572 70.4009 42.5733 63.776C47.8913 60.8681 51.7456 57.7275 54.0917 55.6235C55.3053 54.535 56.2681 53.5844 56.92 52.9212C57.2486 52.5869 57.5175 52.3058 57.7009 52.1125C57.7929 52.0155 57.8689 51.9347 57.9204 51.88C57.9681 51.8292 58.009 51.7855 58.011 51.7834L-29.5878 -30.2316C-30.1864 -29.5923 -24.3571 -36.3945 -14.9974 -41.5123C-3.25139 -47.9349 13.6694 -51.7406 31.7351 -45.8366L-5.54124 68.2268ZM57.9303 51.8694L57.9653 51.8321L-29.4721 -30.3548L-29.5071 -30.3176L57.9303 51.8694ZM57.9165 51.8839C65.2293 44.1225 69.0407 36.2989 70.1374 34.0652L-37.5811 -18.819C-37.4362 -19.1141 -36.7028 -20.6094 -35.505 -22.5328C-34.2835 -24.4943 -32.3187 -27.3337 -29.4234 -30.4066L57.9165 51.8839ZM70.0401 34.2623C71.475 31.3665 72.4646 28.8416 72.6746 28.314L-38.82 -16.0589C-38.8683 -15.9377 -38.7474 -16.2456 -38.5574 -16.691C-38.363 -17.1465 -38.001 -17.9724 -37.4839 -19.0161L70.0401 34.2623ZM72.6921 28.2699C71.6778 30.8243 66.0792 45.4302 50.177 55.9502C33.8781 66.7327 17.6734 65.8869 16.0289 65.8521L18.5665 -54.1211C16.7248 -54.16 0.380319 -54.9891 -16.0318 -44.1317C-32.0472 -33.5368 -37.7326 -18.7977 -38.8376 -16.0148L72.6921 28.2699ZM15.3939 65.8353C16.0109 65.8549 16.5123 65.8612 16.8242 65.8637C16.9815 65.8649 17.1087 65.8653 17.1854 65.8655C17.2246 65.8656 17.2563 65.8656 17.2755 65.8656C17.2853 65.8656 17.2932 65.8656 17.298 65.8656C17.3005 65.8656 17.3025 65.8656 17.3037 65.8656C17.3044 65.8656 17.3049 65.8656 17.3052 65.8656C17.3054 65.8656 17.3055 65.8656 17.3056 65.8656C17.3057 65.8656 17.3058 65.8656 17.3058 65.8656V-54.1344C17.2624 -54.1344 17.5013 -54.1347 17.7792 -54.1325C18.0884 -54.13 18.5871 -54.1238 19.2015 -54.1043L15.3939 65.8353ZM17.2526 65.8656L20.6001 65.8685L20.7064 -54.1314L17.3589 -54.1344L17.2526 65.8656ZM20.6533 65.8686C20.6031 65.8686 19.5789 65.8726 18.2822 65.8188C17.1271 65.7708 14.3096 65.6288 10.7566 65.0209L30.9942 -53.2603C27.3782 -53.879 24.4886 -54.027 23.2576 -54.078C21.885 -54.135 20.7813 -54.1314 20.6533 -54.1314V65.8686ZM10.8048 65.0291C6.34342 64.2695 -1.99168 62.3329 -10.9665 56.6524L53.2111 -44.744C44.1929 -50.4519 35.7264 -52.4547 30.946 -53.2686L10.8048 65.0291ZM-38.6468 11.2131C-39.5649 0.778643 -37.5359 -7.44593 -36.1319 -11.8859L78.2834 24.2961C79.7839 19.5512 81.8139 11.1806 80.8914 0.69534L-38.6468 11.2131ZM-36.1082 -11.9604C-34.3363 -17.5386 -32.0652 -21.6504 -30.6548 -23.9623C-29.434 -25.9635 -28.2556 -27.5402 -28.7681 -26.8309L68.5019 43.4439C68.5655 43.3559 69.0262 42.7215 69.524 42.0042C70.0575 41.2353 70.8733 40.0309 71.788 38.5315C73.6179 35.5319 76.245 30.7132 78.2598 24.3706L-36.1082 -11.9604ZM-28.7808 -26.8133L-28.8401 -26.7311L68.4553 43.5085L68.5146 43.4263L-28.7808 -26.8133ZM-28.8224 -26.7557C-28.7495 -26.8566 -28.6928 -26.9337 -28.6573 -26.9818C-28.6218 -27.0299 -28.6011 -27.0575 -28.6009 -27.0578C-28.6004 -27.0584 -28.6038 -27.0539 -28.6119 -27.0432C-28.62 -27.0324 -28.6318 -27.0168 -28.6484 -26.9948C-28.6652 -26.9726 -28.6851 -26.9462 -28.7104 -26.9128C-28.723 -26.8963 -28.7363 -26.8787 -28.751 -26.8593C-28.766 -26.8396 -28.7809 -26.8199 -28.798 -26.7973L66.8248 45.7029C67.009 45.46 67.7061 44.5451 68.4376 43.5331L-28.8224 -26.7557ZM-28.7908 -26.8068C-29.0075 -26.5211 -29.8652 -25.3976 -30.7692 -24.1286L66.965 45.4992C66.8654 45.6389 66.7853 45.7491 66.7306 45.8238C66.6761 45.8983 66.6398 45.947 66.629 45.9614C66.6188 45.9752 66.6248 45.967 66.658 45.9231C66.6946 45.8746 66.7371 45.8185 66.8176 45.7124L-28.7908 -26.8068ZM-30.6698 -24.2677C-34.1644 -19.392 -44.1287 -4.23603 -42.0634 17.5233C-40.0232 39.0186 -27.6317 51.9401 -23.5829 55.8893L60.2062 -30.0141C63.4606 -26.8397 75.4269 -14.6003 77.3997 6.18458C79.3976 27.2335 69.7235 41.6507 66.8655 45.6383L-30.6698 -24.2677ZM-23.6007 55.8719C-23.0349 56.4243 -22.5162 56.914 -22.3762 57.0466L60.132 -30.0878C60.0841 -30.1332 60.0582 -30.1577 60.0366 -30.1782C60.0168 -30.1969 60.0132 -30.2004 60.0195 -30.1944C60.0261 -30.1881 60.048 -30.1672 60.0811 -30.1353C60.1143 -30.1033 60.163 -30.0562 60.224 -29.9967L-23.6007 55.8719ZM-22.3837 57.0394C-22.0021 57.4009 -22.389 57.0404 -22.8636 56.564C-23.4244 56.001 -24.4753 54.9162 -25.7175 53.4276L66.4155 -23.4588C63.3368 -27.1479 60.2185 -30.0058 60.1396 -30.0806L-22.3837 57.0394ZM-25.8311 53.2911C-26.0882 52.9812 -26.9635 51.9227 -28.0167 50.4569C-29.0656 48.9972 -30.642 46.654 -32.2425 43.5631L74.319 -11.6152C70.9942 -18.0361 67.2146 -22.4958 66.529 -23.3223L-25.8311 53.2911ZM-32.2814 43.4877C-40.6872 27.1979 -41.8698 5.86624 -31.1887 -13.0571L73.3136 45.9282C84.0978 26.8222 82.9645 5.13903 74.358 -11.5398L-32.2814 43.4877Z" fill="#818181" mask="url(#path-1-inside-1)"/>
</g>
<defs>
<clipPath id="clip0">
<rect width="22" height="22" fill="white"/>
</clipPath>
</defs>
</svg>
