<svg width="18" height="18" viewBox="0 0 18 18" fill="none" xmlns="http://www.w3.org/2000/svg">
<path d="M15.4745 2.52548C13.8459 0.896871 11.6806 0 9.37747 0C7.07432 0 4.90897 0.896871 3.28036 2.52548C1.65175 4.1541 0.75491 6.31937 0.75491 8.62253C0.75491 9.93138 1.05215 11.2199 1.61945 12.3881C1.74376 12.6441 1.77151 12.9386 1.67751 13.2072L0.686127 16.0397C0.409336 16.8305 1.16951 17.5907 1.96034 17.3139L4.79276 16.3225C5.06133 16.2285 5.35586 16.2563 5.61181 16.3805C6.78005 16.9478 8.06857 17.2451 9.37744 17.2451C11.6806 17.2451 13.8459 16.3482 15.4745 14.7196C17.1031 13.091 18 10.9257 18 8.62253C18 6.31934 17.1031 4.15406 15.4745 2.52548ZM9.37747 16.1893C8.02406 16.1893 6.69568 15.8273 5.53605 15.1425C5.4021 15.0633 5.24007 15.0474 5.09323 15.0987L2.70112 15.936C2.30571 16.0743 1.92563 15.6943 2.06402 15.2988L2.90125 12.9068C2.95265 12.7599 2.93665 12.5979 2.85754 12.4639C2.17273 11.3043 1.81076 9.97597 1.81076 8.62256C1.81076 4.45025 5.2052 1.05585 9.37747 1.05585C13.5497 1.05585 16.9442 4.45029 16.9442 8.62256C16.9442 12.7949 13.5497 16.1893 9.37747 16.1893Z" fill="#818181"/>
<path d="M14.0132 10.7062L12.769 9.46189C12.3573 9.05021 11.6875 9.05021 11.2758 9.46189L10.7999 9.93783C9.64402 9.31085 8.68939 8.35622 8.06238 7.20039L8.53832 6.72441C8.73776 6.525 8.84756 6.25986 8.84756 5.97783C8.84756 5.69581 8.73773 5.43066 8.53832 5.23125L7.29404 3.98697C7.09463 3.78756 6.82948 3.67773 6.54746 3.67773C6.2654 3.67773 6.00029 3.78756 5.80088 3.98697L4.80547 4.98238C4.24367 5.54418 4.21723 6.51389 4.73104 7.71276C5.17991 8.7601 6.00176 9.91153 7.0452 10.955C8.08864 11.9984 9.24008 12.8203 10.2874 13.2691C10.8588 13.514 11.378 13.6362 11.826 13.6362C12.3179 13.6362 12.7238 13.4888 13.0178 13.1947L14.0132 12.1993C14.2126 11.9999 14.3224 11.7347 14.3224 11.4527C14.3224 11.1707 14.2126 10.9056 14.0132 10.7062ZM12.2713 12.4482C12.0491 12.6704 11.4336 12.6117 10.7033 12.2987C9.77656 11.9015 8.74251 11.1592 7.79178 10.2084C6.84105 9.2577 6.09872 8.22368 5.70149 7.29686C5.3885 6.56659 5.32986 5.95115 5.55201 5.72893L6.54746 4.73351L7.79174 5.9778L6.78209 6.98745L6.94135 7.32365C7.71556 8.95806 9.04204 10.2845 10.6765 11.0588L11.0127 11.218L12.0223 10.2084L13.2666 11.4527L12.2713 12.4482Z" fill="#818181"/>
</svg>
