<svg width="24" height="24" viewBox="0 0 24 24" fill="none" xmlns="http://www.w3.org/2000/svg">
<g clip-path="url(#clip0)">
<path d="M3.50035 12.999C1.57032 12.999 0.000244141 14.569 0.000244141 16.4991C0.000244141 18.4292 1.57027 19.9992 3.50035 19.9992C5.43043 19.9992 7.00045 18.4292 7.00045 16.4991C7.00045 14.569 5.43038 12.999 3.50035 12.999ZM3.50035 18.9992C2.1213 18.9992 1.0003 17.8771 1.0003 16.4991C1.0003 15.1211 2.12135 13.9991 3.50035 13.9991C4.8794 13.9991 6.0004 15.1211 6.0004 16.4991C6.0004 17.8771 4.8794 18.9992 3.50035 18.9992Z" fill="black"/>
<path d="M23.4999 4.00049H22.4999C21.1209 4.00049 19.9999 5.12252 19.9999 6.50054V7.17555C19.9999 9.5466 18.4879 11.6437 16.2388 12.3937L14.3417 13.0257C14.1717 13.0827 14.0447 13.2257 14.0097 13.4017L12.9647 18.6248L11.9867 14.3877C11.9547 14.2507 11.8667 14.1327 11.7437 14.0637C11.6227 13.9957 11.4777 13.9807 11.3417 14.0257L8.34159 15.0257C8.08059 15.1127 7.9386 15.3957 8.0256 15.6578C8.11359 15.9208 8.39663 16.0618 8.65862 15.9737L11.1377 15.1477L12.0947 19.2948C12.1897 19.7079 12.5497 19.9938 12.9727 19.9938C12.9767 19.9938 12.9797 19.9938 12.9847 19.9959C13.4137 19.9899 13.7717 19.6919 13.8557 19.2719L14.9337 13.8837L16.5558 13.3427C19.2139 12.4557 20.9999 9.97762 20.9999 7.17555V6.50054C20.9999 5.6735 21.6729 5.0005 22.4999 5.0005H23.4999C23.776 5.0005 24 4.77648 24 4.50047C24 4.22446 23.776 4.00049 23.4999 4.00049Z" fill="black"/>
<path d="M18.8339 5.12587C18.7269 5.02987 18.5849 4.98285 18.4449 5.00085L0.444421 7.00092C0.2474 7.0229 0.0814118 7.1609 0.0223947 7.35094C-0.0366224 7.54196 0.0233791 7.74896 0.174414 7.87797L4.75951 11.809C5.95355 12.8321 7.4556 13.3741 8.98761 13.3741C9.55964 13.3741 10.1357 13.2991 10.7007 13.1441L14.9478 11.9861C17.3338 11.335 19.0009 9.15398 19.0009 6.67991V5.49886C19.0009 5.35589 18.9399 5.22089 18.8339 5.12587ZM17.9999 6.68089C17.9999 8.70496 16.6369 10.49 14.6838 11.022L10.4367 12.18C8.67565 12.6591 6.79661 12.238 5.41058 11.05L1.69948 7.86892L17.9999 6.05786V6.68089Z" fill="black"/>
</g>
<defs>
<clipPath id="clip0">
<rect width="24" height="24" fill="white"/>
</clipPath>
</defs>
</svg>
