<svg width="20" height="20" viewBox="0 0 20 20" fill="none" xmlns="http://www.w3.org/2000/svg">
<path d="M10 0C4.48609 0 0 4.48609 0 10C0 15.5139 4.48609 20 10 20C15.5139 20 20 15.5139 20 10C20 4.48609 15.5139 0 10 0ZM10 19.1667C4.94547 19.1667 0.83332 15.0545 0.83332 10C0.83332 4.94547 4.94547 0.83332 10 0.83332C15.0545 0.83332 19.1667 4.94547 19.1667 10C19.1667 15.0545 15.0545 19.1667 10 19.1667Z" fill="black"/>
<path d="M10 2.5C5.86465 2.5 2.5 5.86465 2.5 10C2.5 14.1354 5.86465 17.5 10 17.5C14.1354 17.5 17.5 14.1354 17.5 10C17.5 5.86465 14.1354 2.5 10 2.5ZM10 16.6667C6.32406 16.6667 3.33332 13.6759 3.33332 10C3.33332 6.32406 6.32406 3.33332 10 3.33332C13.6759 3.33332 16.6667 6.32406 16.6667 10C16.6667 13.6759 13.6759 16.6667 10 16.6667Z" fill="black"/>
<path d="M15.7035 8.81256C15.4577 7.66022 14.8714 6.61854 14.0067 5.79987C13.9254 5.72295 13.8167 5.67658 13.704 5.68635C13.5917 5.69084 13.4859 5.74006 13.411 5.82346C12.2102 7.15483 11.9157 8.37108 12.622 9.07705C12.9541 9.40944 13.5266 9.58241 14.1313 9.58241C14.5955 9.58241 15.0793 9.48026 15.487 9.26951C15.6539 9.18326 15.7426 8.99608 15.7035 8.81256ZM13.2113 8.48783C12.8788 8.15537 13.2214 7.39897 13.7431 6.72432C14.2387 7.28299 14.6 7.93772 14.8043 8.64979C14.1943 8.83533 13.4644 8.74092 13.2113 8.48783Z" fill="black"/>
<path d="M15.4872 10.7291C14.5468 10.2441 13.2093 10.3336 12.6222 10.9216C11.9158 11.6279 12.2108 12.8442 13.4112 14.1755C13.486 14.2589 13.5918 14.3082 13.7041 14.3126C13.7094 14.313 13.7151 14.313 13.7204 14.313C13.8266 14.313 13.9296 14.2723 14.0069 14.1991C14.8715 13.3804 15.4583 12.3384 15.7037 11.186C15.7427 11.0025 15.654 10.8153 15.4872 10.7291ZM13.7432 13.2746C13.2215 12.5996 12.8789 11.8432 13.2114 11.5107C13.3733 11.3488 13.731 11.2519 14.1277 11.2519C14.3503 11.2519 14.585 11.2824 14.8044 11.3492C14.6001 12.0613 14.2388 12.716 13.7432 13.2746Z" fill="black"/>
<path d="M11.7762 4.47719C10.6247 4.10852 9.37552 4.10852 8.22396 4.47719C8.04126 4.53539 7.92204 4.71117 7.93505 4.90281C8.03923 6.40184 8.92665 7.53262 10.0001 7.53262C11.0735 7.53262 11.9609 6.40184 12.0651 4.90281C12.0781 4.71113 11.9589 4.53535 11.7762 4.47719ZM10.0001 6.69926C9.44833 6.69926 8.95802 6.05352 8.80665 5.17785C9.5879 4.98496 10.4123 4.98496 11.1935 5.17785C11.0422 6.05352 10.5518 6.69926 10.0001 6.69926Z" fill="black"/>
<path d="M12.0651 15.1302C11.961 13.6308 11.0735 12.5 10.0001 12.5C8.92669 12.5 8.03923 13.6308 7.93505 15.1302C7.92204 15.3218 8.04126 15.4976 8.22435 15.5558C8.80052 15.7402 9.39786 15.8333 10.0001 15.8333C10.6022 15.8333 11.1996 15.7402 11.7758 15.5558C11.9589 15.4976 12.0781 15.3218 12.0651 15.1302ZM8.80665 14.8552C8.95802 13.9791 9.44833 13.3334 10.0001 13.3334C10.5518 13.3334 11.0422 13.9791 11.1935 14.8552C10.4115 15.0472 9.58872 15.0472 8.80665 14.8552Z" fill="black"/>
<path d="M6.58896 5.82373C6.51411 5.74037 6.40833 5.69115 6.29603 5.68666C6.18536 5.67772 6.07427 5.7233 5.99329 5.80018C5.12864 6.61885 4.54228 7.66053 4.2965 8.81287C4.25743 8.99638 4.34614 9.18357 4.51298 9.26982C4.92111 9.4806 5.4045 9.58271 5.86876 9.58271C6.47341 9.58271 7.04591 9.40978 7.37794 9.07732C8.08431 8.37134 7.78974 7.15514 6.58896 5.82373ZM6.7888 8.48818C6.53611 8.74045 5.80571 8.83486 5.19579 8.65013C5.40048 7.93806 5.76138 7.28334 6.257 6.72467C6.77861 7.39931 7.12122 8.15572 6.7888 8.48818Z" fill="black"/>
<path d="M7.37798 10.9877C6.79122 10.4005 5.45212 10.3102 4.51298 10.7952C4.34614 10.8815 4.25743 11.0687 4.2965 11.2522C4.54228 12.4049 5.12861 13.4466 5.99329 14.2653C6.0706 14.3385 6.17357 14.3792 6.27974 14.3792C6.28501 14.3792 6.29071 14.3792 6.29642 14.3788C6.40833 14.3744 6.51411 14.3251 6.58939 14.2417C7.78935 12.9104 8.08392 11.6937 7.37798 10.9877ZM6.25696 13.3404C5.76134 12.7821 5.40044 12.1274 5.19575 11.4149C5.8065 11.229 6.53611 11.3242 6.78876 11.5769C7.12122 11.9093 6.77821 12.6658 6.25696 13.3404Z" fill="black"/>
<path d="M9.99994 8.33301C9.08072 8.33301 8.33325 9.08051 8.33325 9.99969C8.33325 10.9189 9.08072 11.6664 9.99994 11.6664C10.9192 11.6664 11.6666 10.9189 11.6666 9.99969C11.6666 9.08051 10.9192 8.33301 9.99994 8.33301ZM9.99994 10.833C9.54056 10.833 9.16661 10.4591 9.16661 9.99969C9.16661 9.54032 9.54056 9.16637 9.99994 9.16637C10.4593 9.16637 10.8333 9.54032 10.8333 9.99969C10.8333 10.4591 10.4593 10.833 9.99994 10.833Z" fill="black"/>
</svg>
