<svg width="22" height="20" viewBox="0 0 22 20" fill="none" xmlns="http://www.w3.org/2000/svg">
<path d="M21.782 6.28403C21.7761 6.20976 21.7696 6.15282 21.7637 6.11373C21.4657 2.7393 18.9901 0.0683594 15.7771 0.0683594C13.9158 0.0683594 12.2148 0.949178 11.101 2.37712C10.0132 0.939571 8.37699 0.0683594 6.52548 0.0683594C3.32351 0.0683594 0.853562 2.72121 0.535544 6.1329C0.529431 6.17266 0.523276 6.22107 0.517662 6.278C0.463307 6.8292 0.508513 7.55956 0.71857 8.44944C1.16488 10.3401 2.20856 12.0622 3.68058 13.3966L10.5353 19.4234C10.8692 19.717 11.3688 19.718 11.704 19.426L18.609 13.409C20.2365 11.7152 21.2037 10.1916 21.5873 8.43584C21.7797 7.55411 21.8245 6.82853 21.782 6.28403ZM19.8538 8.0574C19.5521 9.43826 18.7496 10.7025 17.3855 12.1264L11.124 17.5783L4.86224 12.073C3.66116 10.9841 2.80758 9.57562 2.44548 8.0418C2.28109 7.34534 2.24807 6.81144 2.28732 6.41366L2.29984 6.32441C2.52807 3.75524 4.3009 1.84276 6.52548 1.84276C8.18161 1.84276 9.59063 2.85279 10.2754 4.47499C10.5806 5.19786 11.6049 5.19786 11.9101 4.47499C12.5812 2.88531 14.0901 1.84276 15.7771 1.84276C18.0018 1.84276 19.7746 3.75536 20.0028 6.32529C20.0089 6.37694 20.0106 6.39124 20.013 6.42231C20.0423 6.79764 20.0082 7.3495 19.8538 8.0574Z" fill="#2F2F2F"/>
</svg>
