<svg width="22" height="22" viewBox="0 0 22 22" fill="none" xmlns="http://www.w3.org/2000/svg">
<g clip-path="url(#clip0)">
<path d="M14.4735 0.543186C14.3516 0.457939 14.1958 0.435038 14.0555 0.485438C12.3827 1.07757 11.0178 2.55701 10.4064 4.44253C10.3606 4.58187 10.3853 4.73492 10.4715 4.85316C10.5577 4.97141 10.6961 5.042 10.8419 5.042H14.2077C14.4607 5.042 14.6661 4.83666 14.667 4.58367V0.91717C14.667 0.768676 14.5955 0.629334 14.4735 0.543186ZM13.7494 4.12534H11.5091C11.9996 3.04008 12.8034 2.14362 13.7494 1.62389V4.12534Z" fill="black"/>
<path d="M19.0219 0.977211C18.8807 0.895617 18.7047 0.895617 18.5635 0.977211C18.4215 1.05881 18.3344 1.21005 18.3344 1.3741V4.58231C18.3344 5.34038 17.7175 5.95726 16.9595 5.95726H10.5431C10.2901 5.95726 10.0847 6.1626 10.0847 6.41559C10.0847 6.90782 10.1461 7.3982 10.2671 7.87668L0.703971 17.4389C0.249337 17.8936 0 18.4968 0 19.1384C0 20.4629 1.07796 21.5409 2.4025 21.5409C3.04413 21.5409 3.6473 21.2915 4.10193 20.8369L11.357 13.5818C12.1362 12.8026 13.172 12.3737 14.2738 12.3737H16.0419C19.3272 12.3737 22 9.70076 22 6.41555C22.0009 4.19458 20.8029 2.00932 19.0219 0.977211ZM16.0401 11.457H14.2719C12.9254 11.457 11.6595 11.9814 10.7072 12.9337L3.45201 20.1888C3.17242 20.4702 2.79844 20.6242 2.40155 20.6242C1.58209 20.6242 0.915712 19.9578 0.915712 19.1384C0.915712 18.7415 1.07061 18.3684 1.3511 18.0879L11.1022 8.33681C11.2213 8.21672 11.2663 8.04168 11.2168 7.87943C11.1169 7.55035 11.0518 7.21396 11.0206 6.87482V6.87392H16.9567C18.2199 6.87392 19.2483 5.84546 19.2483 4.58236V2.27056C20.3556 3.25317 21.0816 4.84721 21.0816 6.41555C21.0815 9.19568 18.8202 11.457 16.0401 11.457Z" fill="black"/>
<path d="M2.74987 19.7077C3.2561 19.7077 3.66648 19.2974 3.66648 18.7911C3.66648 18.2849 3.2561 17.8745 2.74987 17.8745C2.24363 17.8745 1.83325 18.2849 1.83325 18.7911C1.83325 19.2974 2.24363 19.7077 2.74987 19.7077Z" fill="black"/>
<path d="M14.4129 7.83972C14.1865 7.72698 13.9115 7.81862 13.7978 8.04506L12.8812 9.87833C12.7685 10.1047 12.8601 10.3797 13.0866 10.4934C13.1526 10.5264 13.2222 10.542 13.291 10.542C13.4587 10.542 13.62 10.4494 13.7016 10.2881L14.6182 8.45484C14.731 8.22836 14.6393 7.95337 14.4129 7.83972Z" fill="black"/>
<path d="M16.2462 7.83972C16.0198 7.72698 15.7448 7.81862 15.6311 8.04506L14.7145 9.87833C14.6017 10.1047 14.6934 10.3797 14.9198 10.4934C14.9858 10.5264 15.0555 10.542 15.1242 10.542C15.292 10.542 15.4533 10.4494 15.5348 10.2881L16.4515 8.45484C16.5643 8.22836 16.4726 7.95337 16.2462 7.83972Z" fill="black"/>
<path d="M18.0797 7.83972C17.8533 7.72698 17.5783 7.81862 17.4646 8.04506L16.548 9.87833C16.4352 10.1047 16.5269 10.3797 16.7533 10.4934C16.8193 10.5264 16.889 10.542 16.9577 10.542C17.1255 10.542 17.2868 10.4494 17.3683 10.2881L18.285 8.45484C18.3977 8.22836 18.3061 7.95337 18.0797 7.83972Z" fill="black"/>
</g>
<defs>
<clipPath id="clip0">
<rect width="22" height="22" fill="white"/>
</clipPath>
</defs>
</svg>
