<svg width="20" height="18" viewBox="0 0 20 18" fill="none" xmlns="http://www.w3.org/2000/svg">
<g clip-path="url(#clip0)">
<path d="M13.0784 8.19129L8.65991 6.01544C8.40585 5.89034 8.10556 5.89501 7.85654 6.0278C7.60736 6.16074 7.45874 6.39557 7.45874 6.65622V10.9706C7.45874 11.23 7.60644 11.4644 7.85394 11.5975C7.98318 11.6669 8.12646 11.7018 8.27005 11.7018C8.40158 11.7018 8.53341 11.6726 8.65472 11.6138L13.0733 9.47545C13.3356 9.34842 13.4994 9.10301 13.5006 8.83481C13.5017 8.56661 13.3399 8.3201 13.0784 8.19129ZM8.63076 10.4278V7.20334L11.9331 8.82959L8.63076 10.4278Z" fill="#818181"/>
<path d="M19.8528 5.39745L19.8519 5.38921C19.835 5.24432 19.6664 3.95563 18.9703 3.30016C18.1657 2.52919 17.2535 2.43553 16.8148 2.39062C16.7785 2.38692 16.7452 2.38348 16.7155 2.37991L16.6805 2.37662C14.0365 2.20358 10.0434 2.17996 10.0035 2.17982L9.99996 2.17969L9.99645 2.17982C9.95647 2.17996 5.96342 2.20358 3.29558 2.37662L3.26033 2.37991C3.23195 2.38335 3.20067 2.38651 3.16664 2.39008C2.73299 2.43512 1.83059 2.52892 1.02371 3.32776C0.360716 3.97623 0.169067 5.23732 0.149383 5.37904L0.147094 5.39745C0.141143 5.45773 0 6.89296 0 8.33382V9.68074C0 11.1216 0.141143 12.5568 0.147094 12.6172L0.148162 12.6263C0.165099 12.7689 0.333556 14.0339 1.02645 14.6897C1.78298 15.4348 2.73955 15.5334 3.25408 15.5864C3.33541 15.5948 3.40544 15.602 3.4532 15.6095L3.49944 15.6153C5.02607 15.746 9.81258 15.8104 10.0155 15.813L10.0216 15.8132L10.0277 15.813C10.0677 15.8129 14.0606 15.7893 16.7046 15.6162L16.7396 15.6129C16.773 15.609 16.8105 15.6054 16.8517 15.6015C17.283 15.5603 18.1805 15.4748 18.9762 14.6868C19.6392 14.0382 19.831 12.7771 19.8505 12.6355L19.8528 12.6171C19.8588 12.5567 20.0001 11.1216 20.0001 9.68074V8.33382C19.9999 6.89296 19.8588 5.45787 19.8528 5.39745ZM18.8279 9.68074C18.8279 11.0143 18.6985 12.3878 18.6863 12.5138C18.6366 12.8611 18.4344 13.659 18.1113 13.975C17.6133 14.4682 17.1017 14.5171 16.7281 14.5526C16.683 14.5569 16.6412 14.561 16.6033 14.5653C14.046 14.7317 10.2037 14.7572 10.0267 14.7582C9.82815 14.7556 5.11167 14.6906 3.63158 14.5669C3.55574 14.5558 3.4738 14.5473 3.38744 14.5385C2.94936 14.4933 2.34969 14.4315 1.88857 13.975L1.87774 13.9646C1.56036 13.667 1.36398 12.9209 1.31408 12.518C1.30477 12.4227 1.17202 11.033 1.17202 9.68074V8.33382C1.17202 7.00172 1.30111 5.62981 1.31362 5.50113C1.37298 5.09203 1.57897 4.34248 1.88857 4.03954C2.40188 3.53142 2.9431 3.47511 3.30107 3.4379C3.33525 3.43433 3.36714 3.43103 3.39659 3.4276C5.99119 3.26033 9.86111 3.23547 9.99996 3.23451C10.1388 3.23534 14.0074 3.26033 16.5789 3.4276C16.6105 3.43117 16.645 3.43474 16.6821 3.43858C17.0503 3.47635 17.6067 3.53348 18.1175 4.02374L18.1222 4.02827C18.4396 4.32587 18.6359 5.08502 18.6858 5.49605C18.6947 5.586 18.8279 6.97865 18.8279 8.33382V9.68074Z" fill="#818181"/>
</g>
<defs>
<clipPath id="clip0">
<rect width="20" height="18" fill="white"/>
</clipPath>
</defs>
</svg>
